<svg width="61" height="62" viewBox="0 0 61 62" fill="none" xmlns="http://www.w3.org/2000/svg">
<path d="M13.7531 61.061C12.5519 60.8682 11.3359 60.7051 10.1495 60.453C8.75551 60.1415 7.42083 59.6818 6.24927 58.8217C4.26208 57.3239 4.23242 55.1291 6.29376 53.7351C7.28736 53.0529 8.44408 52.608 9.55632 52.0296C9.497 51.9555 9.37836 51.8072 9.23006 51.6441C7.05008 49.2713 5.07772 46.7354 3.4761 43.9326C1.9783 41.3077 0.880888 38.5197 0.524974 35.5093C-0.438963 27.5012 4.76629 20.4719 12.3888 18.9741C20.4265 17.3873 28.1232 22.5184 29.8138 30.5265C30.5405 33.9373 30.0066 37.2444 28.7164 40.4328C28.1677 41.7823 27.4707 43.0576 26.8034 44.3626C26.4771 44.9855 25.9877 45.1486 25.4983 44.8817C25.0238 44.6148 24.9348 44.1105 25.2759 43.4877C25.35 43.3542 25.439 43.2208 25.4983 43.0725C26.1508 41.634 26.9072 40.24 27.4262 38.7718C28.7312 35.0347 28.7461 31.3273 26.9517 27.694C24.5047 22.6963 18.7211 19.7155 13.2193 20.6498C7.74708 21.5841 3.60957 25.514 2.45285 30.9417C1.84482 33.789 2.27489 36.5473 3.25366 39.2464C4.49936 42.7017 6.53104 45.6973 8.84448 48.515C10.7575 50.8581 12.9078 52.9639 15.2806 54.9956C16.2742 54.0762 17.3271 53.2012 18.2466 52.2224C19.9075 50.428 21.4943 48.5743 23.0959 46.7354C23.5408 46.2164 24.0598 46.0977 24.4751 46.4388C24.8903 46.7799 24.9051 47.3138 24.4603 47.8476C23.4222 49.1082 22.3692 50.3687 21.3163 51.6144C21.1829 51.7775 21.0346 51.9407 20.9011 52.1038C21.7612 52.4745 22.6214 52.8008 23.437 53.2309C23.9264 53.483 24.3713 53.8241 24.7568 54.2096C26.0915 55.4998 26.0619 57.2052 24.6975 58.4658C23.4667 59.6077 21.9392 60.1267 20.3524 60.4826C19.1512 60.7496 17.9055 60.8979 16.6894 61.0906C15.7255 61.061 14.7467 61.061 13.7531 61.061ZM15.6365 59.2962C16.3928 59.2221 17.4903 59.1924 18.5877 59.0145C20.1893 58.7624 21.7612 58.3916 23.1256 57.4277C24.2823 56.612 24.3268 55.7668 23.0959 55.0549C22.0875 54.4766 20.9308 54.1503 19.8482 53.7054C19.5368 53.5719 19.3143 53.6758 19.0622 53.913C18.0686 54.8176 17.075 55.7074 16.0518 56.5824C15.4586 57.0866 15.0878 57.0866 14.4946 56.5676C13.5159 55.7371 12.5519 54.8918 11.6325 54.002C11.2766 53.6609 10.9651 53.5868 10.5351 53.7351C9.86774 53.9575 9.17074 54.1355 8.53306 54.4321C7.96953 54.699 7.43565 55.0549 6.97593 55.4702C6.4124 55.9744 6.4124 56.4341 6.94627 56.9383C7.30219 57.2942 7.73225 57.6056 8.17714 57.8281C10.3868 58.9848 12.8189 59.2221 15.6365 59.2962Z" fill="#1072D8"/>
<path d="M61 12.627C60.8369 13.5909 60.7331 14.5845 60.4958 15.5188C59.7395 18.4699 58.2269 21.0503 56.388 23.4379C55.6613 24.3722 54.8902 25.262 54.0745 26.2407C54.2822 26.3297 54.4898 26.3742 54.6529 26.478C55.3796 26.9081 56.1804 27.2343 56.8032 27.7979C57.9303 28.8063 57.8858 30.2151 56.8181 31.2829C55.9728 32.1282 54.8754 32.5731 53.7483 32.8548C50.4561 33.6705 47.1935 33.6556 43.9606 32.5286C43.0708 32.2171 42.27 31.7722 41.662 31.0308C40.8612 30.052 40.8612 28.836 41.751 27.9165C42.1217 27.5309 42.5963 27.2047 43.056 26.9229C43.5306 26.6411 44.0496 26.4632 44.628 26.2111C44.4797 26.0331 44.3314 25.8552 44.1831 25.692C41.8696 23.0968 39.8676 20.3088 38.6516 17.0166C38.0732 15.4743 37.7766 13.8727 37.7173 12.2266C37.7025 11.6186 38.0287 11.2182 38.5329 11.1885C39.052 11.1588 39.4375 11.4554 39.4672 12.0338C39.6303 16.4976 41.8103 20.0716 44.5538 23.3638C46.0071 25.0988 47.6532 26.6708 49.2994 28.4059C50.6489 27.0564 51.9242 25.8552 53.1106 24.565C55.3202 22.1477 57.2333 19.5229 58.3603 16.4086C59.5616 13.1016 59.5764 9.85383 57.6485 6.7544C54.3711 1.475 46.6893 0.629702 42.4035 5.12313C41.6768 5.87945 41.1578 6.82855 40.5349 7.68868C40.4311 7.83698 40.3718 8.00011 40.2828 8.16323C39.9714 8.69711 39.5265 8.87506 39.052 8.63779C38.6071 8.41534 38.4291 7.92596 38.7109 7.36243C39.0668 6.63577 39.4227 5.89427 39.8973 5.25659C42.9077 1.31187 46.9266 -0.334233 51.7759 0.703852C56.5956 1.74194 59.5467 4.90068 60.7331 9.67587C60.8666 10.2394 60.9111 10.8326 61 11.411C61 11.841 61 12.2414 61 12.627ZM49.6108 31.6684C50.2485 31.6091 51.1827 31.5795 52.0873 31.4312C53.2292 31.2384 54.3711 30.9418 55.3202 30.23C55.9728 29.7554 56.0024 29.2957 55.3351 28.8953C54.5936 28.4652 53.7779 28.1686 52.9771 27.872C52.7844 27.7979 52.4433 27.9017 52.2653 28.0351C51.598 28.5838 50.9751 29.1919 50.3226 29.7554C49.4625 30.4821 49.2252 30.4969 48.3947 29.7702C47.7274 29.1919 47.0897 28.569 46.4075 28.0055C46.2592 27.872 45.9626 27.783 45.7995 27.8275C45.0877 28.05 44.3759 28.2873 43.7085 28.6135C42.6111 29.1622 42.6111 29.7406 43.6344 30.3931C43.7827 30.4821 43.9458 30.571 44.0941 30.6452C45.7402 31.4608 47.5346 31.5943 49.6108 31.6684Z" fill="#1072D8"/>
<path d="M21.7176 33.4922C21.7325 37.0217 18.9 39.9283 15.3853 39.9728C11.8262 40.0173 8.87503 37.1996 8.81572 33.6553C8.80089 33.0769 8.91952 32.4837 9.02333 31.9054C9.14197 31.327 9.58686 31.0156 10.0762 31.1194C10.5953 31.2232 10.8622 31.6978 10.7288 32.3206C10.2987 34.3523 10.8622 36.0281 12.5083 37.3034C14.4659 38.8161 17.3132 38.4008 18.9445 36.3691C20.4274 34.5154 20.1605 31.594 18.3661 30.0517C16.7052 28.628 14.5845 28.45 12.7159 29.5919C12.538 29.7106 12.3452 29.844 12.1376 29.8885C11.6779 29.9923 11.3219 29.844 11.1143 29.3991C10.8919 28.9246 11.0847 28.539 11.4851 28.2721C13.2498 27.056 15.1777 26.715 17.2242 27.3675C19.9381 28.2424 21.7028 30.6893 21.7176 33.4922Z" fill="#1072D8"/>
<path d="M54.5051 12.0781C54.5051 14.9106 52.1472 17.2537 49.3444 17.2388C46.5267 17.224 44.1836 14.8809 44.1836 12.0632C44.1836 9.23076 46.5267 6.90248 49.3592 6.91731C52.1917 6.91731 54.5051 9.24558 54.5051 12.0781ZM49.3444 8.68205C47.4758 8.68205 45.9632 10.1947 45.9632 12.0632C45.9632 13.917 47.5055 15.4593 49.3444 15.4593C51.1981 15.4593 52.7255 13.917 52.7255 12.0632C52.7255 10.1947 51.2129 8.68205 49.3444 8.68205Z" fill="#1072D8"/>
<path d="M42.9087 41.9454C42.7159 41.9305 42.3748 41.9898 42.182 41.8564C41.9003 41.6636 41.6185 41.367 41.5444 41.0556C41.4554 40.6552 41.7223 40.2696 42.182 40.2103C42.6714 40.151 43.1608 40.151 43.6502 40.1806C44.1544 40.2103 44.4362 40.5365 44.4362 41.0407C44.4362 41.545 44.1396 41.8267 43.6354 41.9009C43.4129 41.9454 43.2053 41.9305 42.9087 41.9454Z" fill="#1072D8"/>
<path d="M38.2069 41.9454C38.0141 41.9306 37.7323 41.9306 37.4802 41.8713C37.0353 41.7675 36.8277 41.456 36.8425 41.0111C36.8574 40.5811 37.0798 40.2697 37.495 40.2252C37.9696 40.1658 38.4738 40.1659 38.9632 40.1955C39.4674 40.2252 39.7492 40.5514 39.7343 41.0556C39.7343 41.5598 39.4526 41.8564 38.9484 41.9158C38.7111 41.9306 38.5035 41.9306 38.2069 41.9454Z" fill="#1072D8"/>
<path d="M47.6104 41.9604C47.4176 41.9455 47.1359 41.9455 46.8689 41.8862C46.424 41.7824 46.1423 41.4413 46.2312 41.0409C46.3054 40.7443 46.602 40.3439 46.8689 40.2549C47.3138 40.1215 47.8329 40.1808 48.3222 40.1956C48.8264 40.2253 49.123 40.5664 49.123 41.0558C49.123 41.5451 48.8413 41.8566 48.3222 41.9159C48.1146 41.9307 47.907 41.9307 47.6104 41.9604Z" fill="#1072D8"/>
<path d="M52.37 41.9603C52.1179 41.9455 51.8657 41.9455 51.6136 41.901C51.1687 41.8268 50.9315 41.5302 50.9166 41.0853C50.9018 40.6108 51.1539 40.2845 51.6285 40.2252C52.0882 40.1807 52.5627 40.1807 53.0373 40.2104C53.5415 40.2549 53.8233 40.5811 53.8084 41.0705C53.8084 41.5747 53.5119 41.8713 53.0076 41.9306C52.8 41.9603 52.5776 41.9306 52.3551 41.9306C52.37 41.9306 52.37 41.9455 52.37 41.9603Z" fill="#1072D8"/>
<path d="M43.6656 57.0422C43.4431 57.0422 43.2355 57.057 43.0131 57.0422C42.5385 56.9977 42.2567 56.7011 42.2271 56.2414C42.1974 55.7816 42.4347 55.4109 42.9093 55.3516C43.4135 55.2774 43.9325 55.2774 44.4367 55.3367C44.8965 55.3961 45.1634 55.7371 45.1486 56.2117C45.1337 56.7159 44.8223 56.9977 44.3329 57.057C44.0956 57.057 43.888 57.0422 43.6656 57.0422Z" fill="#1072D8"/>
<path d="M48.4113 57.0274C48.174 57.0274 47.9367 57.057 47.6994 57.0274C47.2397 56.9532 46.9431 56.6715 46.9283 56.1969C46.9135 55.6927 47.1952 55.3516 47.6846 55.2923C48.1443 55.233 48.6337 55.2478 49.0934 55.2923C49.568 55.3368 49.8349 55.6779 49.8498 56.1376C49.8498 56.5973 49.5828 56.9236 49.1231 57.0126C48.9007 57.057 48.6485 57.0422 48.4113 57.057C48.4113 57.0422 48.4113 57.0274 48.4113 57.0274Z" fill="#1072D8"/>
<path d="M31.8594 32.1132C31.8742 31.3866 32.853 30.215 33.3869 30.2002C33.6538 30.2002 34.0394 30.3485 34.1728 30.5561C34.3211 30.7934 34.3508 31.2383 34.2173 31.4607C33.9652 31.8908 33.6093 32.2912 33.2089 32.5878C33.0013 32.7509 32.5564 32.7509 32.2894 32.6471C32.0818 32.573 31.9484 32.2319 31.8594 32.1132Z" fill="#1072D8"/>
<path d="M58.8496 50.9025C58.9534 50.5615 59.0572 50.0573 59.25 49.5975C59.4131 49.1971 59.7987 49.034 60.2288 49.1526C60.644 49.2713 60.9406 49.5679 60.8665 50.0276C60.7923 50.5466 60.6588 51.0657 60.4661 51.5551C60.3029 51.9703 59.9025 52.0889 59.4725 51.9703C59.0424 51.822 58.8496 51.5106 58.8496 50.9025Z" fill="#1072D8"/>
<path d="M37.1843 30.4081C36.25 30.5119 35.8347 30.2746 35.7754 29.6963C35.7161 29.0734 36.1017 28.762 37.0508 28.673C37.3474 28.6434 37.644 28.6434 37.9257 28.6878C38.4151 28.762 38.6969 29.0882 38.6672 29.5925C38.6376 30.0818 38.341 30.3784 37.8368 30.4081C37.6292 30.4229 37.4067 30.4081 37.1843 30.4081Z" fill="#1072D8"/>
<path d="M32.6163 35.9544C32.6163 36.1472 32.6163 36.2955 32.6163 36.429C32.5867 36.9035 32.3346 37.2001 31.8749 37.2743C31.4151 37.3336 31.0296 37.126 30.9406 36.6514C30.8368 36.1324 30.8071 35.5985 30.8219 35.0795C30.8368 34.6642 31.163 34.427 31.5783 34.3825C32.0232 34.338 32.3642 34.5308 32.4829 34.9757C32.557 35.3019 32.5719 35.6578 32.6163 35.9544Z" fill="#1072D8"/>
<path d="M35.1964 40.0623C35.1816 40.8186 34.5439 41.2635 33.9952 40.9521C33.5206 40.6851 33.0906 40.3292 32.7198 39.9437C32.4232 39.6322 32.4825 39.2022 32.7643 38.8759C33.0312 38.5645 33.4168 38.4458 33.7727 38.6831C34.2028 38.9501 34.6032 39.2763 34.9739 39.6174C35.1222 39.736 35.1667 39.9733 35.1964 40.0623Z" fill="#1072D8"/>
<path d="M52.7706 57.0125C52.0588 57.0273 51.6584 56.7159 51.6287 56.182C51.5842 55.6185 51.9401 55.2774 52.6371 55.2329C52.9634 55.2033 53.3045 55.1588 53.6307 55.1736C54.1646 55.1884 54.4909 55.5295 54.5205 56.0041C54.5354 56.4934 54.2388 56.8345 53.7197 56.9087C53.3786 56.968 53.0524 56.9977 52.7706 57.0125Z" fill="#1072D8"/>
<path d="M29.4882 57.1609C29.2806 57.1312 28.9988 57.1312 28.7319 57.0571C28.3018 56.9384 28.0942 56.5974 28.1239 56.1673C28.1684 55.7372 28.4205 55.4258 28.8802 55.3962C29.3103 55.3665 29.7403 55.3665 30.1704 55.3813C30.6746 55.3962 30.986 55.6779 31.0305 56.1821C31.075 56.6863 30.8081 57.0126 30.3039 57.1016C30.0666 57.1312 29.8145 57.1312 29.4882 57.1609Z" fill="#1072D8"/>
<path d="M58.1534 42.5979C58.1386 43.3097 57.4861 43.7398 56.9374 43.458C56.5073 43.2356 56.0921 42.9538 55.7213 42.6424C55.3951 42.3755 55.2913 41.9602 55.5582 41.6488C55.751 41.4115 56.2107 41.1149 56.4035 41.2039C56.9967 41.4708 57.5157 41.8861 58.0496 42.2717C58.1386 42.331 58.1386 42.5386 58.1534 42.5979Z" fill="#1072D8"/>
<path d="M38.9496 57.0569C38.7271 57.0569 38.5195 57.0717 38.2971 57.0569C37.8225 56.9975 37.5556 56.7158 37.5259 56.2412C37.4963 55.7667 37.7335 55.4256 38.2081 55.3663C38.7123 55.3069 39.2313 55.3069 39.7207 55.3663C40.1953 55.4256 40.4326 55.7667 40.4029 56.2412C40.3732 56.7158 40.1063 56.9975 39.6317 57.0569C39.4241 57.0717 39.1869 57.042 38.9496 57.0569C38.9496 57.042 38.9496 57.042 38.9496 57.0569Z" fill="#1072D8"/>
<path d="M34.2038 57.1162C33.2546 57.1162 32.8097 56.8196 32.8246 56.2116C32.8246 55.6035 33.2546 55.3366 34.2186 55.3218C34.4707 55.3218 34.7228 55.3218 34.9897 55.3514C35.4791 55.4107 35.746 55.7222 35.746 56.1819C35.7609 56.6713 35.4791 56.9975 34.9749 57.0569C34.7228 57.1013 34.4559 57.1013 34.2038 57.1162Z" fill="#1072D8"/>
<path d="M60.8671 46.5723C60.615 46.8244 60.4222 47.2248 60.1404 47.2841C59.8586 47.3582 59.3396 47.2099 59.1913 46.9875C58.8947 46.5426 58.6871 45.9939 58.6426 45.46C58.6129 45.1931 58.9244 44.7482 59.1913 44.6295C59.4286 44.5257 59.9624 44.6444 60.1107 44.852C60.4073 45.3265 60.5705 45.9049 60.8671 46.5723Z" fill="#1072D8"/>
<path d="M56.7445 55.6632C56.611 55.5594 56.2699 55.4111 56.1513 55.1441C56.0475 54.9069 56.0772 54.4768 56.2254 54.284C56.5665 53.8836 56.9818 53.5277 57.4415 53.2904C57.6639 53.1718 58.1237 53.2459 58.3461 53.409C58.5389 53.5573 58.6575 53.9429 58.6427 54.2247C58.6279 54.6992 57.4118 55.6632 56.7445 55.6632Z" fill="#1072D8"/>
</svg>
