<svg width="61" height="50" viewBox="0 0 61 50" fill="none" xmlns="http://www.w3.org/2000/svg">
<path d="M50.5645 35.5417C51.2651 35.5417 51.8823 35.5417 52.5328 35.5417C52.5495 35.6752 52.5495 35.7753 52.5495 35.8753C52.5495 38.0772 52.5662 40.2957 52.5495 42.4975C52.5328 44.1989 51.2484 45.5501 49.5303 45.4833C48.4294 45.45 47.7789 45.7335 47.095 46.701C44.1759 50.7711 38.0207 50.3374 35.5187 45.9838C35.3185 45.6168 35.1016 45.5167 34.7013 45.5167C29.2968 45.5334 23.8756 45.5334 18.4711 45.5167C18.0875 45.5167 17.854 45.6001 17.6371 45.9838C14.9349 50.7043 8.22927 50.7044 5.52702 45.9671C5.32686 45.6335 5.14337 45.5 4.75972 45.5167C4.07581 45.5501 3.39191 45.5334 2.70801 45.5167C1.47365 45.5 0.622941 44.666 0.60626 43.4483C0.58958 40.279 0.58958 37.1264 0.60626 33.9571C0.60626 32.6226 1.2568 31.6552 2.47448 31.1214C3.34187 30.7377 4.22594 30.3708 5.12669 30.0538C5.62711 29.887 5.89399 29.6035 6.09416 29.1197C7.11167 26.4842 8.17923 23.8653 9.2301 21.2465C9.76388 19.8954 10.2643 19.5618 11.7322 19.5618C13.8006 19.5618 15.8523 19.5618 17.9207 19.5618C18.1208 19.5618 18.321 19.5618 18.5879 19.5618C18.5879 18.0105 18.5879 16.5259 18.5879 15.0247C18.5879 12.7227 19.7555 11.5718 22.0408 11.5718C22.8748 11.5718 23.6921 11.5718 24.5595 11.5718C24.5595 12.239 24.5595 12.8562 24.5595 13.5734C23.6755 13.5734 22.7914 13.5734 21.9073 13.5734C20.9232 13.5734 20.5896 13.9071 20.5896 14.8912C20.5896 18.8612 20.5896 22.8478 20.5896 26.8178C20.5896 27.0347 20.5896 27.2682 20.5896 27.5351C19.9223 27.5351 19.3052 27.5351 18.6213 27.5351C18.6213 25.5834 18.6213 23.6151 18.6213 21.5801C18.2543 21.5801 17.9374 21.5801 17.6371 21.5801C15.6855 21.5801 13.7172 21.5968 11.7655 21.5634C11.3986 21.5634 11.1984 21.6635 11.0816 22.0305C10.9148 22.5142 10.7147 22.998 10.4811 23.5818C11.5654 23.5818 12.5662 23.6318 13.567 23.5651C15.9023 23.415 16.753 24.3324 16.6029 26.601C16.5362 27.5351 16.6029 28.4692 16.5862 29.4033C16.5695 30.7211 15.7689 31.5551 14.4511 31.5551C12.1492 31.5718 9.83061 31.5384 7.52869 31.5718C7.06163 31.5718 6.59458 31.6885 6.1442 31.8386C5.29349 32.1389 4.47615 32.4892 3.6588 32.8228C2.69133 33.2065 2.57456 33.3899 2.64128 34.5409C3.60876 34.5409 4.57623 34.5409 5.57706 34.5409C5.57706 35.2415 5.57706 35.8753 5.57706 36.5426C4.60959 36.5426 3.6588 36.5426 2.65797 36.5426C2.65797 38.8778 2.65797 41.1798 2.65797 43.515C3.30851 43.515 3.95905 43.515 4.62627 43.515C4.27598 38.5275 7.8623 35.892 10.8982 35.5918C13.7339 35.3082 17.537 36.8261 18.6046 41.4466C18.6046 37.51 18.6046 33.5734 18.6046 29.6035C19.2718 29.6035 19.889 29.6035 20.5729 29.6035C20.5729 34.224 20.5729 38.8612 20.5729 43.5317C25.2935 43.5317 29.9473 43.5317 34.5845 43.5317C34.1842 38.2773 38.321 35.4083 41.8573 35.5751C45.6104 35.7586 48.9632 38.9612 48.5128 43.5484C48.8965 43.5484 49.2968 43.5818 49.6804 43.5484C50.2476 43.4817 50.5478 43.0647 50.5478 42.3808C50.5478 40.3624 50.5478 38.3441 50.5478 36.3257C50.5645 36.0255 50.5645 35.8086 50.5645 35.5417ZM16.6029 42.5476C16.6363 39.812 14.4178 37.5434 11.6988 37.51C8.92986 37.4767 6.64462 39.6785 6.61126 42.4308C6.5779 45.1998 8.79641 47.485 11.532 47.5017C14.3177 47.5184 16.5695 45.2999 16.6029 42.5476ZM36.5862 42.5142C36.5862 45.2498 38.8214 47.485 41.5403 47.5017C44.326 47.5184 46.5779 45.2498 46.5612 42.4642C46.5445 39.7452 44.3093 37.51 41.5737 37.51C38.8214 37.51 36.5695 39.7452 36.5862 42.5142ZM8.11251 29.47C10.3143 29.47 12.4495 29.47 14.5512 29.47C14.5512 28.1356 14.5512 26.8345 14.5512 25.5167C13.0166 25.5167 11.5487 25.5 10.0808 25.5334C9.91401 25.5334 9.64712 25.7002 9.5804 25.8503C9.07998 27.018 8.61293 28.219 8.11251 29.47Z" fill="#1072D8"/>
<path d="M36.6363 17.8771C37.2702 17.5602 37.8707 17.2599 38.4879 16.9597C39.7222 16.3425 40.9566 15.742 42.1576 15.1081C42.3578 15.0081 42.5413 14.6911 42.5579 14.4576C42.608 13.5068 42.5746 12.556 42.5746 11.5719C43.2418 11.5719 43.859 11.5719 44.5096 11.5719C44.5096 12.8396 44.593 14.124 44.4595 15.3917C44.4095 15.8588 43.9257 16.4259 43.4921 16.6594C41.1901 17.8938 38.8215 19.0281 36.4862 20.1957C35.869 20.5126 35.2519 20.4793 34.6347 20.1623C32.3494 19.0114 30.0642 17.8771 27.779 16.7262C26.995 16.3425 26.6113 15.692 26.6113 14.8246C26.6113 11.9555 26.6113 9.08646 26.6113 6.2174C26.6113 5.3667 26.995 4.73283 27.7623 4.36586C30.0642 3.2149 32.3661 2.06395 34.6847 0.912991C35.3019 0.59606 35.9191 0.59606 36.5363 0.912991C38.8382 2.06395 41.1401 3.2149 43.442 4.36586C44.226 4.7662 44.593 5.41674 44.593 6.28413C44.593 7.35168 44.593 8.40256 44.593 9.50348C43.9257 9.50348 43.3086 9.50348 42.608 9.50348C42.608 8.76953 42.608 8.01891 42.608 7.18488C42.1743 7.38505 41.824 7.55185 41.4737 7.73534C39.9891 8.46928 38.4879 9.20322 37.02 9.97053C36.8365 10.0706 36.603 10.3542 36.603 10.5377C36.5696 12.9063 36.5863 15.2749 36.5863 17.6603C36.5863 17.6936 36.6197 17.7437 36.6363 17.8771ZM28.5963 7.15152C28.5963 9.72032 28.5796 12.139 28.613 14.5744C28.613 14.7578 28.8298 15.0081 29.0133 15.0915C29.9474 15.5919 30.8982 16.0589 31.849 16.526C32.7331 16.9597 33.6172 17.4101 34.6013 17.8938C34.6013 15.325 34.6013 12.8563 34.5846 10.3875C34.5846 10.2708 34.4845 10.104 34.3845 10.0539C33.8173 9.75368 33.2502 9.47011 32.5663 9.1365C32.5663 10.0039 32.5663 10.7545 32.5663 11.4885C31.8657 11.4885 31.2652 11.4885 30.5813 11.4885C30.5813 10.5043 30.598 9.55352 30.5646 8.60273C30.5646 8.40256 30.4645 8.13567 30.3311 8.03558C29.814 7.71865 29.2469 7.46845 28.5963 7.15152ZM29.864 5.5335C30.3311 5.78371 30.7147 5.95052 31.0484 6.15068C31.4153 6.38421 31.7323 6.36753 32.1326 6.15068C33.2335 5.56686 34.3511 5.03308 35.4687 4.46595C36.0525 4.1657 36.6363 3.88213 37.3369 3.53183C36.8532 3.28163 36.4862 3.1315 36.1359 2.91466C35.7523 2.68113 35.4353 2.69781 35.0517 2.91466C33.9508 3.49848 32.8332 4.03225 31.7156 4.59939C31.1318 4.88296 30.5479 5.18321 29.864 5.5335ZM33.8507 7.51849C34.3344 7.7687 34.7181 7.9355 35.0684 8.15235C35.452 8.38588 35.769 8.35252 36.1526 8.15235C37.3369 7.51849 38.5546 6.93467 39.7723 6.33417C40.256 6.08396 40.7564 5.83375 41.3403 5.5335C40.7398 5.23325 40.2727 4.98305 39.789 4.7662C39.6555 4.71616 39.4554 4.73284 39.3386 4.79956C37.5371 5.66695 35.7523 6.5677 33.8507 7.51849Z" fill="#1072D8"/>
<path d="M52.5334 23.5652C52.5334 24.2157 52.5334 24.8329 52.5334 25.4834C47.2123 25.4834 41.9246 25.4834 36.6035 25.4834C36.6035 24.8329 36.6035 24.2324 36.6035 23.5652C41.9079 23.5652 47.1957 23.5652 52.5334 23.5652Z" fill="#1072D8"/>
<path d="M60.5229 27.5518C60.5229 28.219 60.5229 28.8362 60.5229 29.4867C55.8857 29.4867 51.2652 29.4867 46.6113 29.4867C46.6113 28.8695 46.6113 28.2357 46.6113 27.5518C51.2318 27.5518 55.869 27.5518 60.5229 27.5518Z" fill="#1072D8"/>
<path d="M56.5357 31.5552C56.5357 32.2057 56.5357 32.8229 56.5357 33.4734C51.8818 33.4734 47.2613 33.4734 42.6074 33.4734C42.6074 32.8229 42.6074 32.2057 42.6074 31.5552C47.2279 31.5552 51.8651 31.5552 56.5357 31.5552Z" fill="#1072D8"/>
<path d="M26.4453 27.018C26.095 27.4183 25.7447 27.8186 25.3777 28.2523C24.8606 27.7019 24.4103 27.2348 23.9766 26.7844C24.944 25.8003 25.9282 24.7494 26.9624 23.7486C27.3127 23.3983 27.8131 23.3816 28.1634 23.7152C29.1976 24.7327 30.1984 25.7836 31.2159 26.8345C30.7822 27.2682 30.3485 27.7019 29.7647 28.2857C29.4311 27.8353 29.0975 27.4016 28.7806 26.9513C28.7305 27.0013 28.6638 27.0347 28.6138 27.0847C28.6138 28.5359 28.6138 29.9704 28.6138 31.455C27.9299 31.455 27.296 31.455 26.6288 31.455C26.6288 30.0038 26.6288 28.5526 26.6288 27.1014C26.562 27.0847 26.512 27.0513 26.4453 27.018Z" fill="#1072D8"/>
<path d="M52.5496 21.4802C51.8824 21.4802 51.2819 21.4802 50.5646 21.4802C50.5646 21.2467 50.5646 21.0298 50.5646 20.813C50.5646 18.7946 50.5646 16.7763 50.5646 14.7746C50.5646 13.8739 50.2143 13.5236 49.3303 13.5236C48.4462 13.5236 47.5454 13.5236 46.6113 13.5236C46.6113 12.8564 46.6113 12.2225 46.6113 11.5553C47.7623 11.5553 48.8966 11.4719 50.0308 11.572C51.3653 11.7054 52.4829 12.8063 52.5329 14.1408C52.5996 16.5594 52.5496 18.9948 52.5496 21.4802Z" fill="#1072D8"/>
<path d="M54.6016 25.4668C54.6016 24.7996 54.6016 24.1824 54.6016 23.5486C55.2354 23.5486 55.8526 23.5486 56.5198 23.5486C56.5198 24.1658 56.5198 24.7996 56.5198 25.4668C55.9026 25.4668 55.2688 25.4668 54.6016 25.4668Z" fill="#1072D8"/>
<path d="M44.5257 29.4867C43.8751 29.4867 43.258 29.4867 42.6074 29.4867C42.6074 28.8362 42.6074 28.2023 42.6074 27.5518C43.2413 27.5518 43.8585 27.5518 44.5257 27.5518C44.5257 28.1689 44.5257 28.8028 44.5257 29.4867Z" fill="#1072D8"/>
<path d="M34.6016 31.4551C34.6016 30.8045 34.6016 30.204 34.6016 29.5535C35.2354 29.5535 35.8693 29.5535 36.5365 29.5535C36.5365 30.1706 36.5365 30.8045 36.5365 31.4551C35.886 31.4551 35.2521 31.4551 34.6016 31.4551Z" fill="#1072D8"/>
<path d="M60.5237 37.4767C59.8732 37.4767 59.256 37.4767 58.6055 37.4767C58.6055 36.8428 58.6055 36.209 58.6055 35.5417C59.2393 35.5417 59.8732 35.5417 60.5237 35.5417C60.5237 36.1756 60.5237 36.7928 60.5237 37.4767Z" fill="#1072D8"/>
<path d="M14.6016 42.4975C14.6016 44.1656 13.2338 45.5167 11.5824 45.5C9.94772 45.4834 8.61328 44.1489 8.61328 42.5142C8.61328 40.8628 9.96441 39.5117 11.6325 39.5117C13.2505 39.5117 14.6016 40.8628 14.6016 42.4975ZM10.6149 42.4475C10.5816 42.9813 11.0153 43.4483 11.5491 43.4817C12.0995 43.515 12.5999 43.0647 12.5999 42.4975C12.6166 41.9638 12.1662 41.4967 11.6325 41.48C11.1154 41.48 10.6316 41.9137 10.6149 42.4475Z" fill="#1072D8"/>
<path d="M41.6238 39.4951C43.2418 39.5118 44.5929 40.8796 44.5762 42.4976C44.5595 44.1657 43.1917 45.5001 41.5404 45.4834C39.9057 45.4667 38.5879 44.0989 38.5879 42.4809C38.5879 40.8296 39.9557 39.4951 41.6238 39.4951ZM41.5737 41.4968C41.0399 41.4968 40.5896 41.9472 40.5896 42.4809C40.5896 43.0147 41.0232 43.4651 41.557 43.4818C42.1242 43.4984 42.5912 43.0147 42.5745 42.4643C42.5579 41.9472 42.1075 41.4968 41.5737 41.4968Z" fill="#1072D8"/>
</svg>
