<svg width="62" height="58" viewBox="0 0 62 58" fill="none" xmlns="http://www.w3.org/2000/svg">
<path d="M61.1182 21.6753C61.0385 21.9145 60.9747 22.1697 60.879 22.409C60.225 24.1474 58.9969 25.1682 57.1468 25.3915C56.7959 25.4393 56.4291 25.4393 56.0782 25.4393C46.4288 25.4393 36.7794 25.4393 27.13 25.4234C26.492 25.4234 26.0295 25.5829 25.5669 26.0454C23.3021 28.2783 21.0054 30.4953 18.7246 32.6963C18.5013 32.9037 18.2461 33.1429 17.9591 33.2227C17.1456 33.4779 16.4439 32.8877 16.4439 31.9627C16.4279 30.0328 16.4439 28.1029 16.4439 26.173C16.4439 25.9497 16.4439 25.7424 16.4439 25.4553C16.1727 25.4393 15.9335 25.4074 15.7102 25.4074C12.0259 25.4074 8.34155 25.4234 4.67319 25.4074C2.23292 25.3915 0.462537 23.956 0.0638016 21.6593C0.0159533 21.3563 0 21.0214 0 20.7024C0 15.3753 0 10.0322 0 4.70508C0 1.85013 1.83418 0 4.70508 0C16.1408 0 27.5766 0 39.0283 0C40.0012 0 40.5594 0.446588 40.5594 1.18026C40.5594 1.92989 39.9852 2.37647 39.0283 2.37647C27.6723 2.37647 16.3003 2.37647 4.94432 2.37647C4.59344 2.37647 4.2266 2.36052 3.87571 2.45622C2.95065 2.67951 2.39241 3.49293 2.39241 4.57749C2.39241 8.46915 2.39241 12.3768 2.39241 16.2684C2.39241 17.7358 2.39241 19.2191 2.39241 20.6864C2.39241 22.2176 3.17394 22.9991 4.70508 22.9991C8.82003 22.9991 12.935 22.9991 17.0659 22.9991C18.5013 22.9991 18.8363 23.334 18.8363 24.7535C18.8363 26.0135 18.8363 27.2576 18.8363 28.5176C18.8363 28.709 18.8522 28.9004 18.8682 29.1875C19.0915 28.9801 19.251 28.8366 19.4105 28.693C21.1011 27.0662 22.7917 25.4393 24.4505 23.7806C24.9928 23.2383 25.5669 22.9991 26.3485 22.9991C36.3328 23.015 46.3172 23.015 56.3174 23.015C57.6412 23.015 58.4228 22.5046 58.6939 21.4679C58.7577 21.2446 58.7577 20.9895 58.7577 20.7662C58.7577 15.3912 58.7577 10.0162 58.7577 4.65724C58.7577 3.20584 57.9602 2.40837 56.5088 2.40837C54.4354 2.40837 52.3779 2.40837 50.3045 2.40837C50.0812 2.40837 49.8579 2.40837 49.6506 2.36052C49.0285 2.23292 48.6777 1.70659 48.7255 1.08456C48.7734 0.510385 49.204 0.0319008 49.826 0.0319008C52.3141 0.0159514 54.8022 -0.031895 57.2904 0.0638016C59.0288 0.127599 60.544 1.5471 61.0225 3.28558C61.0704 3.42913 61.1182 3.58863 61.1661 3.73217C61.1182 9.74511 61.1182 15.7102 61.1182 21.6753Z" fill="#1072D8"/>
<path d="M24.6419 36.9388C26.827 34.4028 29.0758 31.7552 31.3566 29.1395C32.5209 27.7838 34.0042 27.3372 35.7108 27.8795C37.4333 28.4218 38.5179 29.5861 38.7252 31.4203C38.789 31.9147 38.6933 32.457 38.5976 32.9514C38.2468 34.5942 37.848 36.237 37.4333 37.9436C37.7045 37.9595 37.9118 37.9755 38.1192 37.9755C40.2404 37.9755 42.3777 37.9914 44.4989 37.9755C45.7111 37.9755 46.8435 38.1828 47.4496 39.3631C48.1035 40.639 48.0078 41.9309 47.2741 43.175C47.1625 43.3504 47.1465 43.6535 47.2103 43.8449C47.7048 45.1049 47.5931 46.3011 46.7957 47.4016C46.5883 47.6887 46.5883 47.8801 46.7159 48.1831C47.1625 49.3953 47.003 50.5436 46.1896 51.5484C45.9822 51.8036 45.9663 51.995 46.0779 52.2821C46.4448 53.2231 46.3012 54.1323 45.7589 54.9616C44.8498 56.3333 43.5739 57.1307 41.9311 57.1467C38.2149 57.1945 34.4986 57.1626 30.7665 57.1626C30.4794 57.1626 30.1763 57.0669 29.9052 56.9553C28.3581 56.3811 26.827 55.775 25.2958 55.1849C25.1204 55.1211 24.929 55.0573 24.6897 54.9616C24.6897 55.3444 24.7057 55.6634 24.6897 55.9664C24.6419 56.6682 24.2113 57.1307 23.5095 57.1467C20.9416 57.1626 18.3738 57.1626 15.8059 57.1467C15.0882 57.1467 14.6735 56.7161 14.6097 55.9983C14.5938 55.8229 14.5938 55.6474 14.5938 55.4561C14.5938 49.7462 14.5938 44.0363 14.5938 38.3264C14.5938 36.9547 14.9446 36.6038 16.3322 36.6038C18.5652 36.6038 20.7821 36.5879 23.0151 36.6198C23.5254 36.6357 24.0039 36.8112 24.6419 36.9388ZM36.4923 54.7702C38.2308 54.7702 39.9534 54.7702 41.6918 54.7702C42.5531 54.7702 43.2389 54.4353 43.7334 53.7176C44.0842 53.2072 43.8929 52.8722 43.3027 52.6649C42.9199 52.5373 42.4893 52.2821 42.2979 51.9472C41.8354 51.1976 42.5531 50.1768 43.6217 50.2725C44.2756 50.3363 44.5149 50.0651 44.5787 49.475C44.6425 48.8849 44.3235 48.6775 43.7812 48.5978C43.0794 48.4862 42.6966 48.0236 42.7126 47.3856C42.7285 46.652 43.223 46.2692 44.148 46.2373C44.8179 46.2213 45.0731 45.998 45.121 45.376C45.1688 44.7699 45.0093 44.5785 44.3075 44.4509C43.6058 44.3074 43.1432 43.7332 43.2389 43.1112C43.3346 42.4732 43.8131 42.0745 44.5627 42.0904C45.0731 42.1064 45.3602 41.915 45.4559 41.4206C45.6313 40.6231 45.424 40.3519 44.6106 40.3519C41.8035 40.3519 38.9964 40.3519 36.1893 40.3519C35.0409 40.3519 34.5624 39.7299 34.8336 38.6135C35.328 36.4762 35.8384 34.355 36.3009 32.2177C36.5242 31.2289 35.9979 30.3995 35.025 30.0965C34.1318 29.8253 33.5098 30.24 32.9516 30.8939C30.3039 33.9881 27.6404 37.0823 24.9928 40.1924C24.8173 40.3998 24.7057 40.7188 24.7057 40.9899C24.6897 44.6104 24.7057 48.231 24.6738 51.8515C24.6738 52.2662 24.8173 52.4416 25.1842 52.5692C26.5399 53.0636 27.9115 53.5581 29.2353 54.1323C30.3358 54.6107 31.4523 54.8181 32.6485 54.7702C33.9404 54.7224 35.2164 54.7702 36.4923 54.7702ZM22.2654 54.7383C22.2654 49.4591 22.2654 44.2436 22.2654 39.06C20.495 39.06 18.7725 39.06 17.05 39.06C17.05 44.3074 17.05 49.5069 17.05 54.7383C18.8044 54.7383 20.511 54.7383 22.2654 54.7383Z" fill="#1072D8"/>
<path d="M43.3034 18.0548C43.4789 17.05 43.6703 15.8857 43.8776 14.7373C43.9414 14.3705 43.8776 14.1153 43.5905 13.8442C42.809 13.1105 42.0594 12.3449 41.2778 11.5953C40.8791 11.2125 40.6877 10.7819 40.8472 10.2556C41.0067 9.69733 41.4692 9.45809 42.0115 9.37834C43.0961 9.21885 44.1647 9.0434 45.2492 8.93175C45.6001 8.8839 45.7596 8.72441 45.9032 8.43733C46.3816 7.44846 46.8761 6.47554 47.3386 5.50263C47.5779 5.02414 47.9128 4.70516 48.487 4.68921C49.0612 4.68921 49.3961 5.0082 49.6353 5.48668C50.1138 6.4596 50.5764 7.44846 51.1027 8.42137C51.2143 8.64467 51.5014 8.85201 51.7407 8.89986C52.7774 9.09125 53.8141 9.2348 54.8667 9.37834C55.4569 9.45809 55.9513 9.64948 56.1587 10.2715C56.35 10.8776 56.063 11.2923 55.6483 11.691C54.8986 12.4087 54.1809 13.1424 53.4154 13.8442C53.1283 14.1153 53.0485 14.3705 53.1283 14.7373C53.3197 15.7581 53.4791 16.7789 53.6705 17.7837C53.7822 18.3419 53.7503 18.8682 53.2399 19.2351C52.7455 19.6019 52.2351 19.4903 51.7247 19.2191C50.7837 18.7088 49.8427 18.1984 48.8698 17.7358C48.6624 17.6401 48.3275 17.6401 48.1201 17.7358C47.0834 18.2303 46.0786 18.8045 45.0419 19.3148C44.1647 19.7614 43.2715 19.1872 43.3034 18.0548ZM44.5634 11.4677C45.0738 11.9621 45.4725 12.3768 45.9191 12.7756C46.3657 13.1903 46.5252 13.6687 46.3976 14.2748C46.27 14.849 46.1903 15.4391 46.0786 16.0931C46.6528 15.79 47.1632 15.5667 47.6257 15.2796C48.2318 14.8968 48.806 14.9128 49.412 15.2796C49.8746 15.5667 50.369 15.79 50.9432 16.0771C50.8475 15.471 50.7996 14.9766 50.688 14.4981C50.4807 13.7166 50.6561 13.1105 51.2941 12.5842C51.6928 12.2492 52.0437 11.8665 52.4743 11.4358C51.7566 11.3242 51.1824 11.2125 50.6082 11.1647C50.0181 11.1009 49.6194 10.8138 49.3642 10.2715C49.109 9.72923 48.8379 9.2029 48.5189 8.58087C48.1999 9.2029 47.9287 9.72923 47.6736 10.2715C47.4343 10.8138 47.0356 11.1009 46.4454 11.1647C45.8553 11.2444 45.2811 11.3561 44.5634 11.4677Z" fill="#1072D8"/>
<path d="M7.14527 18.0867C7.32071 17.0978 7.48021 15.9813 7.7035 14.8808C7.7992 14.4183 7.71945 14.1152 7.35261 13.7803C6.58704 13.0945 5.86931 12.3289 5.11969 11.6271C4.72096 11.2603 4.51362 10.8297 4.67311 10.2874C4.84855 9.72915 5.27919 9.48991 5.83742 9.41016C6.93793 9.25067 8.03844 9.10712 9.13895 8.91573C9.34629 8.88383 9.60148 8.69244 9.69718 8.50104C10.2235 7.51218 10.702 6.52331 11.1805 5.5185C11.4197 5.04002 11.7547 4.70508 12.3288 4.70508C12.903 4.70508 13.2379 5.02407 13.4772 5.50255C13.9557 6.49141 14.4501 7.46433 14.9126 8.43725C15.0562 8.72434 15.1997 8.89978 15.5666 8.93168C16.6192 9.04332 17.6559 9.23472 18.6927 9.37826C19.2828 9.45801 19.7932 9.6494 19.9846 10.2555C20.176 10.8456 19.8889 11.2762 19.4742 11.675C18.7086 12.3927 17.943 13.1264 17.2253 13.8919C17.0499 14.0674 16.9382 14.4183 16.9701 14.6575C17.1137 15.6783 17.3051 16.699 17.4964 17.7039C17.6081 18.278 17.6081 18.8203 17.0818 19.2191C16.5554 19.6018 16.0451 19.4583 15.5187 19.1712C14.5937 18.6608 13.6686 18.1664 12.7116 17.7198C12.5043 17.6241 12.1693 17.6241 11.9779 17.7198C10.9412 18.2142 9.93642 18.7884 8.89971 19.2988C8.00654 19.7613 7.11337 19.2031 7.14527 18.0867ZM9.90452 16.1089C10.5106 15.7899 11.021 15.5666 11.4835 15.2796C12.0736 14.9127 12.6319 14.9446 13.222 15.2796C13.7005 15.5666 14.2109 15.8059 14.785 16.093C14.6734 15.4231 14.5937 14.8808 14.482 14.3385C14.3385 13.7006 14.498 13.1742 14.9924 12.7276C15.423 12.3449 15.8058 11.9302 16.2683 11.4676C15.5825 11.356 15.0083 11.2443 14.4182 11.1965C13.8281 11.1327 13.4293 10.8456 13.1901 10.3033C12.9349 9.76105 12.6478 9.23472 12.3448 8.61269C12.0258 9.25067 11.7387 9.79295 11.4835 10.3512C11.2443 10.8456 10.8774 11.1167 10.3352 11.1805C9.72908 11.2603 9.13895 11.356 8.37337 11.4836C8.8997 11.978 9.31439 12.3927 9.76098 12.7914C10.2235 13.2061 10.3511 13.7006 10.2235 14.3066C10.1119 14.8489 10.0321 15.4231 9.90452 16.1089Z" fill="#1072D8"/>
<path d="M30.4311 4.70508C30.9575 4.70508 31.3083 4.97622 31.5316 5.4547C32.0261 6.47547 32.5205 7.49623 33.0468 8.48509C33.1425 8.67649 33.3977 8.86788 33.5891 8.89978C34.6418 9.09117 35.7104 9.23472 36.779 9.37826C37.3372 9.45801 37.8476 9.6175 38.039 10.2076C38.2463 10.8137 37.9752 11.2762 37.5446 11.6909C36.763 12.4246 35.9815 13.1742 35.2478 13.9398C35.1043 14.0833 35.0086 14.3864 35.0405 14.5937C35.2 15.7102 35.3914 16.8266 35.5987 17.9431C35.6944 18.4694 35.5668 18.9001 35.1522 19.2191C34.7215 19.538 34.259 19.5221 33.8124 19.2829C32.8395 18.7725 31.8666 18.278 30.9096 17.7517C30.5587 17.5603 30.2716 17.5603 29.9207 17.7517C28.9957 18.2621 28.0547 18.7406 27.1296 19.235C26.6352 19.5061 26.1407 19.5859 25.6782 19.2191C25.2157 18.8682 25.1359 18.3897 25.2476 17.8315C25.4549 16.7788 25.5825 15.7102 25.8058 14.6575C25.8855 14.2907 25.7739 14.0674 25.5187 13.8282C24.7531 13.1104 24.0035 12.3608 23.2379 11.6271C22.8392 11.2443 22.584 10.8297 22.7594 10.2555C22.9508 9.6494 23.4134 9.44206 23.9716 9.36231C25.0562 9.20282 26.1407 9.07522 27.2093 8.88383C27.4167 8.85193 27.6719 8.66054 27.7676 8.46914C28.2939 7.46433 28.7883 6.44357 29.2828 5.4228C29.538 4.99217 29.8888 4.72103 30.4311 4.70508ZM34.3068 11.4517C33.6848 11.356 33.1266 11.2443 32.5524 11.1805C31.9144 11.1167 31.4997 10.7978 31.2445 10.2236C31.0213 9.7132 30.7342 9.20282 30.4311 8.59674C30.1281 9.20282 29.8569 9.7132 29.6177 10.2236C29.3625 10.7978 28.9478 11.1167 28.3098 11.1805C27.7357 11.2284 27.1615 11.356 26.5554 11.4517C27.0179 11.9302 27.4007 12.3608 27.8314 12.7436C28.262 13.1423 28.4374 13.5889 28.3258 14.179C28.2142 14.7692 28.1344 15.3752 28.0228 16.0611C28.5969 15.758 29.0914 15.5507 29.538 15.2636C30.16 14.8649 30.7501 14.8808 31.3721 15.2636C31.8187 15.5347 32.3132 15.758 32.8714 16.0451C32.7597 15.3593 32.6959 14.7532 32.5524 14.1471C32.4408 13.6049 32.6002 13.1742 32.9671 12.8074C33.3977 12.4087 33.8124 11.9621 34.3068 11.4517Z" fill="#1072D8"/>
<path d="M45.8706 1.22798C45.8706 1.88191 45.3602 2.42419 44.7063 2.42419C44.0524 2.42419 43.4941 1.86596 43.5101 1.19608C43.526 0.542156 44.0524 0.0317777 44.7063 0.0477271C45.3762 0.0636765 45.8706 0.574057 45.8706 1.22798Z" fill="#1072D8"/>
</svg>
