<svg width="58" height="60" viewBox="0 0 58 60" fill="none" xmlns="http://www.w3.org/2000/svg">
<path d="M29.0223 0.0485591C30.1877 0.206379 31.3774 0.303497 32.5307 0.509876C38.6371 1.65103 43.8209 4.50393 48.0092 9.09283C51.5662 12.9898 53.8121 17.5787 54.759 22.7746C55.281 25.6275 55.3174 28.4804 54.9775 31.3454C54.9532 31.5882 55.0261 31.8917 55.1596 32.0859C58.2796 36.6748 57.709 42.1864 53.715 46.1076C53.545 46.2654 53.4236 46.5689 53.4358 46.7996C53.5814 50.5387 53.7393 54.2778 53.8971 58.0169C53.9214 58.6482 53.7393 59.1823 53.1565 59.4737C52.5617 59.7772 52.0397 59.5829 51.5541 59.1702C49.8787 57.7255 48.2034 56.2809 46.4796 54.8119C45.9454 55.2732 45.4112 55.7224 44.8892 56.1716C43.7481 57.1549 42.5948 58.1383 41.4536 59.1338C40.968 59.5587 40.4339 59.7893 39.8147 59.4737C39.1956 59.158 39.0378 58.6117 39.062 57.9562C39.147 56.2323 39.2199 54.5084 39.3048 52.6753C39.0135 52.7846 38.8071 52.8695 38.6007 52.9545C35.0923 54.4963 31.4017 55.2611 27.5898 55.249C22.4789 55.2247 17.7078 53.9136 13.3253 51.2549C8.54218 48.3656 4.97303 44.3716 2.5936 39.3213C1.05182 36.0435 0.202022 32.5837 0.0320624 28.9538C-0.174317 24.5349 0.614782 20.3102 2.42364 16.2797C4.12323 12.4677 6.59978 9.21423 9.79259 6.51916C13.3982 3.47203 17.5379 1.48108 22.1754 0.558439C23.2194 0.35206 24.2877 0.267078 25.3439 0.109259C25.526 0.084979 25.7202 0.0364199 25.9023 0C26.9221 0.0485599 27.9783 0.0485591 29.0223 0.0485591ZM53.1444 29.9614C53.1687 29.5972 53.193 29.3544 53.2172 29.0995C53.4479 24.8384 52.6588 20.7715 50.8985 16.8867C45.8119 5.6815 32.9314 -0.38848 21.0463 2.82861C10.3753 5.71792 2.88495 14.7136 1.99874 25.7489C1.58598 30.8598 2.59359 35.6915 5.16726 40.1226C9.75617 48.05 16.6638 52.4811 25.8052 53.258C30.4548 53.6586 34.8616 52.6874 39.0378 50.6358C39.2077 50.5508 39.3777 50.2716 39.3898 50.0773C39.4627 49.009 39.5234 47.9407 39.5234 46.8845C39.5234 46.6053 39.3777 46.2411 39.1834 46.0469C38.2365 45.1121 37.4231 44.0802 36.889 42.8541C36.7069 42.4292 36.4884 42.4049 36.0877 42.5384C33.8297 43.2911 31.5595 44.0316 29.2894 44.7236C28.8402 44.8572 28.2818 44.8693 27.8326 44.7236C23.4015 43.3275 18.9825 41.8829 14.5636 40.4625C13.7138 40.1833 13.5438 39.9648 13.5438 39.0785C13.5438 32.9236 13.5438 26.7808 13.5438 20.6258C13.5438 19.7396 13.7138 19.5089 14.5515 19.2418C18.9947 17.8093 23.4258 16.3647 27.8811 14.9564C28.2939 14.8229 28.8159 14.8229 29.2287 14.9564C33.6962 16.3647 38.1515 17.8093 42.619 19.254C43.4081 19.5089 43.5902 19.7639 43.5902 20.6137C43.5902 22.8595 43.5902 25.1176 43.5902 27.3635C43.5902 27.5699 43.5902 27.7762 43.5902 28.0433C47.0866 27.1571 50.2187 27.7762 53.1444 29.9614ZM46.4917 29.5851C41.6964 29.5851 37.7873 33.4577 37.7631 38.2652C37.7388 43.0726 41.6478 47.0059 46.4796 47.0181C51.2627 47.0302 55.1839 43.1333 55.2082 38.338C55.2325 33.5184 51.3113 29.5851 46.4917 29.5851ZM15.4984 21.6213C15.4862 21.8277 15.4741 21.9248 15.4741 22.0219C15.4741 27.4363 15.4741 32.8386 15.462 38.253C15.462 38.6415 15.6076 38.7872 15.9476 38.8964C18.1449 39.5884 20.3301 40.3047 22.5274 41.0088C24.0206 41.4823 25.5017 41.9678 27.0435 42.4534C27.0678 42.2471 27.092 42.1014 27.092 41.9436C27.092 36.5656 27.092 31.1997 27.1042 25.8217C27.1042 25.4454 26.9706 25.2875 26.6186 25.1783C23.3529 24.1464 20.0873 23.0902 16.8338 22.034C16.4089 21.9126 15.984 21.7791 15.4984 21.6213ZM35.9421 40.5596C35.9421 39.2121 35.7964 37.9495 35.9664 36.7477C36.4641 33.3728 38.2365 30.7869 41.2108 29.0752C41.5143 28.8931 41.6357 28.6989 41.6357 28.3468C41.6236 26.2709 41.6236 24.1949 41.6236 22.119C41.6236 21.9733 41.5993 21.8277 41.575 21.6334C37.3624 22.9931 33.1984 24.3285 29.0587 25.6639C29.0587 31.3939 29.0587 37.0633 29.0587 42.7812C31.4017 42.0164 33.7083 41.2759 35.9421 40.5596ZM17.7443 20.2495C17.9142 20.3344 17.9992 20.383 18.0842 20.4073C21.4591 21.4999 24.8219 22.5925 28.1968 23.6608C28.4274 23.7336 28.7309 23.7093 28.9737 23.6365C32.2394 22.5925 35.4929 21.5484 38.7585 20.4923C38.9285 20.4316 39.0985 20.3587 39.3413 20.2616C35.76 19.1083 32.2758 17.9793 28.7916 16.8624C28.5974 16.8017 28.3303 16.8503 28.1239 16.911C26.4486 17.4451 24.7733 17.9914 23.098 18.5256C21.3498 19.084 19.5895 19.6546 17.7443 20.2495ZM51.9061 56.9364C51.7726 53.78 51.6512 50.7815 51.5176 47.6979C48.1184 49.3611 44.8164 49.3368 41.4536 47.71C41.3201 50.8179 41.1987 53.8043 41.0773 56.9364C41.2958 56.7543 41.405 56.6572 41.5265 56.5601C42.789 55.4675 44.0516 54.3749 45.3141 53.2944C46.2368 52.5053 46.7466 52.5053 47.6571 53.2823C48.1913 53.7315 48.7133 54.1928 49.2475 54.6541C50.073 55.3704 50.9228 56.0988 51.9061 56.9364Z" fill="#1072D8"/>
<path d="M45.0835 39.7948C46.8923 37.9859 48.6526 36.2256 50.4251 34.4532C50.595 34.2954 50.7529 34.1254 50.9471 33.9918C51.372 33.7005 51.809 33.7369 52.1611 34.1011C52.5132 34.4532 52.5496 34.8902 52.2704 35.3151C52.1611 35.4729 52.0276 35.6186 51.894 35.7521C49.9516 37.7067 48.0092 39.6491 46.0668 41.5915C45.2656 42.3927 44.8893 42.3927 44.088 41.5793C43.0318 40.4989 41.9635 39.4306 40.9195 38.338C40.3853 37.7795 40.4339 37.0997 40.9923 36.7476C41.4294 36.4684 41.8543 36.5534 42.3399 37.0268C42.8012 37.476 43.2382 37.9373 43.6874 38.3865C44.1244 38.8478 44.5858 39.297 45.0835 39.7948Z" fill="#1072D8"/>
</svg>
