<svg width="16" height="12" viewBox="0 0 16 12" fill="none" xmlns="http://www.w3.org/2000/svg">
<path d="M13.4514 6.73793C13.3832 6.73793 13.3149 6.73793 13.2511 6.73793C9.12246 6.73793 4.99378 6.73793 0.865092 6.73793C0.751292 6.73793 0.637491 6.73793 0.528243 6.70975C0.191393 6.61582 -0.036208 6.27296 0.00476024 5.9254C0.0457284 5.54028 0.327954 5.26787 0.692116 5.24908C0.760396 5.24438 0.828677 5.24439 0.896957 5.24439C5.02109 5.24439 9.14522 5.24439 13.2694 5.24439C13.3331 5.24439 13.4014 5.24439 13.4651 5.24439C13.4833 5.21621 13.5061 5.18802 13.5243 5.15984C13.4696 5.13166 13.4014 5.11758 13.3558 5.07531C12.1405 3.82599 10.9296 2.57198 9.71422 1.32266C9.40469 1.00329 9.37282 0.575893 9.63229 0.265913C9.8872 -0.0440676 10.3333 -0.0910347 10.6428 0.167282C10.6929 0.209552 10.7339 0.256519 10.7794 0.298789C12.4181 1.98959 14.0569 3.68039 15.6956 5.3712C16.1007 5.7892 16.1007 6.19311 15.7001 6.60642C14.0432 8.31131 12.3908 10.0115 10.743 11.7164C10.529 11.9418 10.2832 12.0593 9.97824 11.97C9.45931 11.8244 9.26812 11.181 9.61863 10.763C9.6596 10.716 9.70512 10.669 9.75064 10.6221C10.9524 9.38215 12.1496 8.14223 13.3558 6.90701C13.3968 6.86474 13.456 6.83656 13.5061 6.79898C13.4833 6.7802 13.4651 6.75671 13.4514 6.73793Z" fill="#1072D8"/>
</svg>
