<svg width="30" height="22" viewBox="0 0 30 22" fill="none" xmlns="http://www.w3.org/2000/svg">
<path d="M25.2214 12.3529C25.0934 12.3529 24.9654 12.3529 24.8459 12.3529C17.1046 12.3529 9.36333 12.3529 1.62205 12.3529C1.40867 12.3529 1.1953 12.3529 0.990455 12.3012C0.358862 12.129 -0.0678899 11.5004 0.00892545 10.8632C0.0857408 10.1572 0.614914 9.65776 1.29772 9.62332C1.42574 9.61471 1.55377 9.61471 1.68179 9.61471C9.41454 9.61471 17.1473 9.61471 24.88 9.61471C24.9995 9.61471 25.1276 9.61471 25.247 9.61471C25.2812 9.56304 25.3239 9.51138 25.358 9.45972C25.2556 9.40805 25.1276 9.38222 25.0422 9.30473C22.7633 7.01432 20.493 4.71529 18.2142 2.42488C17.6338 1.83937 17.574 1.0558 18.0605 0.487507C18.5385 -0.0807907 19.3749 -0.166897 19.9553 0.306684C20.0492 0.384179 20.126 0.470284 20.2114 0.547779C23.284 3.64758 26.3566 6.74739 29.4292 9.84719C30.1888 10.6135 30.1888 11.354 29.4378 12.1118C26.331 15.2374 23.2328 18.3544 20.1431 21.4801C19.7419 21.8934 19.281 22.1086 18.7092 21.945C17.7362 21.6781 17.3777 20.4985 18.0349 19.7321C18.1117 19.646 18.1971 19.5599 18.2824 19.4738C20.5357 17.2006 22.7804 14.9274 25.0422 12.6628C25.119 12.5854 25.23 12.5337 25.3239 12.4648C25.2812 12.4304 25.247 12.3873 25.2214 12.3529Z" fill="#FDBA37"/>
</svg>
