<svg width="9" height="7" viewBox="0 0 9 7" fill="none" xmlns="http://www.w3.org/2000/svg">
<path d="M9 0.872672C8.95596 1.11322 8.81722 1.28709 8.66087 1.45619C7.03569 3.21151 5.41051 4.96921 3.78753 6.7269C3.56731 6.96508 3.31407 7.06749 3.01458 6.95317C2.90447 6.91268 2.79656 6.83646 2.71508 6.74834C1.88488 5.85758 1.05687 4.96444 0.233269 4.06892C-0.0992548 3.7069 -0.0728289 3.18769 0.290525 2.88045C0.572399 2.64228 0.970987 2.68515 1.25286 2.99001C1.88928 3.67832 2.5257 4.36663 3.15992 5.05495C3.18414 5.08115 3.19956 5.11687 3.23479 5.17165C3.27223 5.11687 3.28764 5.08591 3.30966 5.06209C4.7873 3.46397 6.26494 1.86584 7.74038 0.267719C7.95398 0.0366939 8.20283 -0.0609562 8.50011 0.0390755C8.75997 0.127199 8.91412 0.32488 8.98238 0.605921C8.98679 0.627356 8.99339 0.64641 9 0.667846C9 0.734533 9 0.803603 9 0.872672Z" fill="#1072D8"/>
</svg>
