<svg width="18" height="17" viewBox="0 0 18 17" fill="none" xmlns="http://www.w3.org/2000/svg">
<path d="M9.21097 17C8.84958 17 8.48819 17 8.12679 17C8.08162 16.9911 8.04096 16.9779 7.99579 16.9734C7.06972 16.9071 6.17528 16.7123 5.33053 16.345C2.47553 15.1013 0.731818 12.9768 0.131004 9.96719C0.0677607 9.65738 0.0406566 9.34314 0 9.03332C0 8.67925 0 8.32518 0 7.9711C0.00903479 7.92242 0.0225873 7.87373 0.0271046 7.82505C0.0948656 7.39573 0.135521 6.95756 0.234904 6.53267C1.0119 3.24421 3.78558 0.694871 7.19169 0.128352C7.50339 0.0752405 7.81509 0.0442593 8.12679 0C8.48819 0 8.84958 0 9.21097 0C9.25614 0.00885186 9.2968 0.0221299 9.34197 0.0265559C9.88406 0.1195 10.4487 0.150482 10.9682 0.309815C14.3924 1.34106 16.4795 3.58943 17.2068 7.0328C17.27 7.33819 17.2971 7.65686 17.3423 7.96668C17.3423 8.32075 17.3423 8.67483 17.3423 9.0289C17.3332 9.07316 17.3197 9.11299 17.3152 9.15725C17.1616 11.0206 16.4659 12.6626 15.2146 14.07C13.8684 15.5837 12.1834 16.5176 10.1641 16.8672C9.84792 16.9248 9.52719 16.9557 9.21097 17ZM8.66888 1.33221C4.63033 1.33221 1.35974 4.53215 1.3507 8.48894C1.34167 12.4457 4.6213 15.6678 8.66436 15.6678C12.7029 15.6722 15.9735 12.4678 15.9871 8.50664C15.9961 4.55428 12.7165 1.33221 8.66888 1.33221Z" fill="white"/>
<path d="M7.99036 9.92282C7.99036 9.21024 7.99036 8.49767 7.99036 7.78509C7.99036 7.48855 8.17557 7.24513 8.45113 7.15218C8.72217 7.06367 9.02936 7.13891 9.19198 7.37348C9.2733 7.48856 9.33654 7.64789 9.33654 7.78509C9.34557 9.20582 9.34558 10.6265 9.34106 12.0473C9.34106 12.4367 9.03839 12.7244 8.65441 12.72C8.27947 12.7156 7.99036 12.4279 7.98584 12.0473C7.98584 11.3391 7.99036 10.631 7.99036 9.92282Z" fill="white"/>
<path d="M8.66886 4.51465C9.17481 4.51465 9.58589 4.91298 9.58589 5.40426C9.58589 5.89554 9.17481 6.30272 8.67338 6.30272C8.17195 6.30272 7.75635 5.89997 7.75635 5.40869C7.75635 4.91741 8.16291 4.51907 8.66886 4.51465Z" fill="white"/>
</svg>
