<svg width="20" height="20" viewBox="0 0 20 20" fill="none" xmlns="http://www.w3.org/2000/svg">
<path d="M18.8195 4.65555C18.3428 2.11976 16.4606 0.461321 13.8788 0.323258C13.7344 0.315658 13.5909 0.290326 13.4467 0.273438H5.55472C5.06433 0.351124 4.56654 0.372868 4.08121 0.489609C1.83506 1.03025 0.327767 2.81071 0.116029 5.12885C0.0560749 5.78475 0.0949182 6.44403 0.000976562 7.09614V12.5973C0.0900628 13.3459 0.0571305 14.1023 0.185271 14.8509C0.58637 17.1973 2.25917 18.8346 4.61847 19.1521C4.95434 19.1973 5.29148 19.2328 5.62798 19.2727H13.3736C13.8402 19.1952 14.3141 19.1853 14.7798 19.0873C17.0661 18.606 18.6333 16.872 18.8752 14.5287C18.9289 14.0083 18.9597 13.4856 19.0019 12.964V6.50884C18.916 5.89368 18.9352 5.27029 18.8195 4.65555ZM17.149 13.759C17.1302 14.1617 17.0685 14.5612 16.9649 14.9507C16.5638 16.413 15.4137 17.2957 13.8305 17.4206C13.4057 17.4544 12.981 17.4717 12.5562 17.4817L12.5609 12.5975V12.3959C12.5628 12.1445 12.5712 12.1344 12.8163 12.1335C13.5101 12.1311 14.204 12.1294 14.898 12.1282V9.74128C14.2109 9.73734 13.5238 9.73347 12.8366 9.72967C12.5621 9.72819 12.5621 9.72798 12.5611 9.45376C12.5611 9.01402 12.5579 8.5745 12.5624 8.13477C12.5668 7.70095 12.8262 7.43813 13.2556 7.43327C13.803 7.42736 14.3504 7.42863 14.8978 7.42673C14.8978 6.66675 14.8959 5.90846 14.9001 5.14912C14.9001 5.05729 14.879 5.03575 14.7878 5.03639C14.1414 5.04103 13.4948 5.03892 12.8484 5.03892C12.2537 5.13856 11.7198 5.36297 11.2676 5.77779C10.6949 6.30217 10.4399 6.98446 10.2769 7.717C10.1484 8.29479 10.1631 8.88145 10.1653 9.46769C10.1653 9.72925 10.1653 9.72883 9.89757 9.7303C9.21007 9.73396 8.52265 9.73783 7.83529 9.74191V12.1291L9.90264 12.1342C10.1606 12.1342 10.1655 12.1401 10.1655 12.4054V17.3094C10.1655 17.3727 10.1684 17.4361 10.1716 17.4994C9.94338 17.5015 9.71539 17.5045 9.48718 17.5106C8.08861 17.4684 6.68962 17.5359 5.29084 17.4287C3.19542 17.2674 1.94736 15.9706 1.84941 13.8456C1.74534 11.5868 1.77869 9.32604 1.79305 7.06637C1.79727 6.42271 1.8283 5.77399 1.91971 5.13096C2.16902 3.38681 3.37084 2.2479 5.13272 2.13327C7.80763 1.95932 10.4855 2.05326 13.1623 2.06994C13.5488 2.07247 13.9385 2.13327 14.3204 2.20399C15.8699 2.48877 16.8626 3.55105 17.0764 5.11724C17.1792 5.86962 17.2031 6.62812 17.209 7.38261C17.225 9.50843 17.2658 11.6347 17.149 13.759Z" fill="#1A1A1A"/>
</svg>
