<svg width="16" height="17" viewBox="0 0 16 17" fill="none" xmlns="http://www.w3.org/2000/svg">
<path d="M8.34617 15.5211C6.42797 17.3741 3.34377 17.3667 1.43627 15.4952C-0.470685 13.6249 -0.4782 10.5983 1.41061 8.71631L1.40902 8.71523L8.34727 1.90829L9.21497 1.05733C10.652 -0.352443 12.9813 -0.352443 14.4184 1.05733C15.8554 2.4671 15.8554 4.75264 14.4184 6.16296L6.77016 13.5885L6.76747 13.5864C5.82493 14.4779 4.32266 14.4716 3.39136 13.5626C2.46006 12.653 2.45419 11.1867 3.36729 10.2676L3.3646 10.2644L4.21623 9.43412L8.47446 5.27874L9.32555 6.11014L4.21623 11.0958C3.74576 11.5543 3.74576 12.2986 4.21623 12.7575C4.68671 13.2165 5.44957 13.2165 5.9195 12.7575L13.5511 5.31091L13.549 5.30934L13.5778 5.28502C14.5359 4.34533 14.5359 2.82093 13.5778 1.88131C12.6198 0.941679 11.0673 0.941619 10.1092 1.88131L10.0836 1.90986L10.082 1.90877L9.21485 2.75919L2.27617 9.56618C0.839145 10.976 0.839145 13.2615 2.27617 14.6713C3.71319 16.081 6.04309 16.081 7.47902 14.6713L13.5501 8.71523L14.4173 7.86481L15.2844 8.71523L14.4173 9.56618L8.34727 15.5222C8.34727 15.5222 8.34617 15.5211 8.34617 15.5211Z" fill="#1072D8"/>
</svg>
