<svg width="28" height="27" viewBox="0 0 28 27" fill="none" xmlns="http://www.w3.org/2000/svg">
<path d="M27.4022 10.2671L27.4023 10.2673C27.4397 10.3822 27.4085 10.5085 27.3219 10.5929L27.3218 10.5929L21.0588 16.6975L20.8706 16.881L20.915 17.1401L22.3936 25.7597C22.4141 25.8789 22.365 25.9995 22.2671 26.0707C22.1692 26.1418 22.0395 26.1512 21.9323 26.0949C21.9323 26.0949 21.9322 26.0949 21.9322 26.0949L14.1916 22.0252L13.9589 21.9028L13.7262 22.0252L5.98523 26.0949L5.98514 26.095C5.93869 26.1194 5.88812 26.1314 5.83742 26.1314C5.77131 26.1314 5.70588 26.111 5.65056 26.0708C5.55254 25.9996 5.50358 25.8791 5.52403 25.7599L5.52404 25.7598L7.00216 17.1401L7.04658 16.881L6.85837 16.6975L0.596067 10.593L0.596025 10.593C0.509376 10.5085 0.478185 10.3822 0.515589 10.2671L0.515606 10.2671C0.552986 10.152 0.652494 10.0682 0.772107 10.0508L0.772185 10.0508L9.42668 8.79313L9.6868 8.75533L9.80314 8.51962L13.6739 0.677194L13.228 0.457099L13.6739 0.677191C13.7274 0.568688 13.8379 0.5 13.959 0.5C14.08 0.5 14.1905 0.56871 14.244 0.67712L14.244 0.677187L18.1146 8.51962L18.2309 8.75533L18.491 8.79313L27.1457 10.0508L27.1458 10.0508C27.2654 10.0682 27.3648 10.1519 27.4022 10.2671Z" stroke="#1072D8"/>
</svg>
