<svg width="29" height="27" viewBox="0 0 29 27" fill="none" xmlns="http://www.w3.org/2000/svg">
<path d="M27.7812 10.2673L27.7811 10.2671C27.7437 10.1519 27.6443 10.0682 27.5247 10.0508L27.5246 10.0508L18.8699 8.79313L18.6098 8.75533L18.4935 8.51962L14.6229 0.677187L14.6229 0.67712C14.5694 0.56871 14.4589 0.5 14.3379 0.5C14.2168 0.5 14.1064 0.568688 14.0528 0.677195L10.182 8.51962L10.0657 8.75533L9.80559 8.79313L1.15109 10.0508L1.15101 10.0508C1.0314 10.0682 0.931892 10.152 0.894513 10.2671L0.894495 10.2671C0.857091 10.3822 0.888283 10.5085 0.97493 10.593L0.974974 10.593L7.23727 16.6975L7.42549 16.881L7.38106 17.1401L5.90295 25.7598L5.90294 25.7599C5.88249 25.879 5.93141 25.9995 6.02935 26.0707L27.7812 10.2673ZM27.7812 10.2673C27.8186 10.3822 27.7874 10.5085 27.7008 10.5929L27.7007 10.5929L21.4377 16.6975L21.2495 16.881L21.2939 17.1401L22.7725 25.7597C22.7725 25.7597 22.7725 25.7597 22.7725 25.7597C22.793 25.879 22.7439 25.9996 22.646 26.0707C22.5482 26.1418 22.4184 26.1512 22.3112 26.0949C22.3112 26.0949 22.3112 26.0949 22.3111 26.0949L14.5705 22.0252L14.3378 21.9028L14.1051 22.0252L6.36414 26.0949L6.36405 26.095M27.7812 10.2673L6.36405 26.095M6.36405 26.095C6.31759 26.1194 6.26703 26.1314 6.21632 26.1314C6.15022 26.1314 6.08478 26.111 6.02946 26.0708L6.36405 26.095Z" fill="#1072D8" stroke="#1072D8"/>
</svg>
