<svg width="20" height="20" viewBox="0 0 20 20" fill="none" xmlns="http://www.w3.org/2000/svg">
<path d="M9.7693 0.010008C11.0632 0.010008 12.3546 0.00250788 13.6485 0.0150079C14.0109 0.0175079 14.3733 0.0700079 14.7357 0.115008C14.9807 0.147508 15.2257 0.200008 15.4681 0.255008C15.9989 0.380008 16.494 0.592508 16.956 0.875008C17.6808 1.32001 18.2473 1.91501 18.6659 2.64001C18.9032 3.05251 19.0742 3.49501 19.2018 3.95751C19.3396 4.46501 19.3779 4.98251 19.4238 5.50251C19.5693 7.09501 19.4698 8.69001 19.4953 10.2825C19.5055 10.9575 19.5132 11.6325 19.4927 12.3075C19.4749 12.89 19.4238 13.47 19.3804 14.05C19.3626 14.29 19.3345 14.53 19.2937 14.765C19.2171 15.235 19.0665 15.685 18.8573 16.115C18.5025 16.845 17.9972 17.455 17.3362 17.94C16.8028 18.3325 16.2133 18.6075 15.5702 18.785C15.144 18.9025 14.7101 18.9425 14.2763 19.005C13.4622 19.1225 12.6481 19.07 11.8339 19.0725C9.85607 19.08 7.87821 19.08 5.9029 19.07C5.59154 19.0675 5.28019 19.0075 4.96883 18.97C4.75956 18.945 4.55029 18.915 4.34358 18.875C3.8842 18.79 3.44269 18.6375 3.0216 18.4375C2.43462 18.1575 1.9242 17.7725 1.49035 17.2975C1.14837 16.92 0.872743 16.495 0.66092 16.0325C0.446545 15.5675 0.306181 15.0825 0.21941 14.5825C0.170921 14.3 0.153056 14.0125 0.13264 13.7275C0.109671 13.4 0.0994627 13.07 0.0815981 12.7425C-0.0281415 10.8 0.053525 8.85751 0.0407646 6.91251C0.0356604 6.32501 0.0969107 5.73501 0.147952 5.14751C0.178577 4.78501 0.224515 4.42251 0.298525 4.06501C0.349567 3.81251 0.443993 3.56751 0.535868 3.32501C0.773212 2.70751 1.13306 2.16251 1.59498 1.68501C2.10795 1.15501 2.7179 0.757508 3.41206 0.485008C3.77956 0.340008 4.15472 0.222508 4.55029 0.175008C4.8642 0.135008 5.18066 0.102508 5.49457 0.0525079C6.10196 -0.0399921 6.71446 0.020008 7.32441 0.010008C8.13597 0.00250795 8.95264 0.010008 9.7693 0.010008ZM9.73868 17.3075C9.73868 17.315 9.73868 17.3225 9.73868 17.33C11.03 17.3075 12.3214 17.2875 13.6127 17.265C14.187 17.255 14.751 17.2025 15.2971 17.0125C15.9811 16.775 16.5323 16.375 16.9432 15.7875C17.3617 15.1875 17.5455 14.505 17.594 13.795C17.6501 12.945 17.6731 12.09 17.6833 11.2375C17.6961 10.0475 17.6859 8.85501 17.6859 7.66251C17.6859 6.81001 17.6654 5.95751 17.5659 5.10751C17.5149 4.68251 17.4307 4.27251 17.2622 3.87501C17.0249 3.31251 16.6574 2.85751 16.1521 2.51001C15.7284 2.21751 15.2563 2.02251 14.7382 1.95251C14.3375 1.89751 13.9343 1.80751 13.5311 1.79751C12.2525 1.76501 10.9713 1.74751 9.69274 1.75501C8.41415 1.76251 7.13555 1.79501 5.85696 1.83251C5.46904 1.84501 5.08113 1.90001 4.69576 1.95251C4.1828 2.02501 3.72342 2.23751 3.31253 2.54251C2.50352 3.14001 2.10029 3.96751 1.97524 4.92751C1.89613 5.55001 1.84764 6.18001 1.84764 6.80501C1.84509 8.97501 1.86806 11.145 1.89102 13.3125C1.89613 13.8475 1.96248 14.3775 2.13602 14.8925C2.2866 15.3325 2.50352 15.7325 2.81488 16.08C3.4529 16.785 4.28232 17.1225 5.21128 17.2175C5.83654 17.28 6.46691 17.295 7.09472 17.305C7.97774 17.3175 8.85821 17.3075 9.73868 17.3075Z" fill="#1A1A1A"/>
<path d="M8.30182 6.46729C8.92453 6.46729 9.52938 6.46729 10.1521 6.46729C10.1521 6.80479 10.1521 7.13729 10.1521 7.48729C10.1929 7.46479 10.2184 7.45729 10.2286 7.44229C10.5349 6.99979 10.9611 6.72979 11.4792 6.57729C12.1197 6.38479 12.745 6.42479 13.3396 6.72229C13.7786 6.94229 14.0849 7.29479 14.2839 7.73979C14.4702 8.15479 14.5366 8.58979 14.5366 9.03979C14.5366 10.3798 14.534 11.7223 14.5391 13.0623C14.5391 13.1848 14.5008 13.2173 14.3809 13.2173C13.8654 13.2123 13.3524 13.2123 12.8369 13.2173C12.7118 13.2198 12.6812 13.1748 12.6812 13.0573C12.6863 12.0023 12.6889 10.9498 12.6787 9.89479C12.6761 9.64479 12.6557 9.38229 12.5791 9.14479C12.3724 8.49979 11.862 8.16479 11.1882 8.29729C10.7391 8.38479 10.443 8.67979 10.272 9.10479C10.1751 9.34729 10.1495 9.59229 10.1495 9.84729C10.1521 10.9223 10.1495 11.9973 10.1521 13.0723C10.1521 13.1823 10.1189 13.2148 10.0092 13.2148C9.47833 13.2098 8.94495 13.2123 8.41411 13.2148C8.32224 13.2148 8.28906 13.1923 8.28906 13.0948C8.29161 10.9198 8.29161 8.74729 8.29161 6.57229C8.29417 6.53979 8.29927 6.50729 8.30182 6.46729Z" fill="#1A1A1A"/>
<path d="M6.99268 6.45771C6.99524 6.51771 7.00034 6.56021 7.00034 6.60521C7.00034 8.75771 7.00034 10.9127 7.00289 13.0652C7.00289 13.1877 6.96461 13.2202 6.84466 13.2177C6.32659 13.2127 5.80596 13.2127 5.28789 13.2177C5.17305 13.2177 5.13477 13.1852 5.13477 13.0677C5.13732 10.9102 5.13732 8.75271 5.13477 6.59521C5.13477 6.48521 5.16284 6.45271 5.27768 6.45521C5.84169 6.46271 6.4057 6.45771 6.99268 6.45771Z" fill="#1A1A1A"/>
<path d="M5.00459 4.58269C4.99693 3.96769 5.49969 3.5152 6.07646 3.5127C6.60474 3.5127 7.13813 3.91019 7.14323 4.58019C7.14833 5.22019 6.59964 5.64519 6.0637 5.64269C5.54053 5.64019 4.98162 5.19269 5.00459 4.58269Z" fill="#1A1A1A"/>
</svg>
