<svg width="19" height="20" viewBox="0 0 19 20" fill="none" xmlns="http://www.w3.org/2000/svg">
<g clip-path="url(#clip0_2_3772)">
<path d="M9.50329 0.295669C10.9152 0.295669 12.327 0.284408 13.7389 0.3013C14.3595 0.30693 14.969 0.4308 15.5365 0.689802C15.9196 0.861531 16.2886 1.06986 16.6493 1.28663C16.8338 1.39642 16.9875 1.55971 17.1553 1.69484C17.2112 1.73988 17.2811 1.77085 17.3314 1.81871C17.7033 2.19032 18.0108 2.60979 18.2764 3.06586C18.5839 3.60075 18.7936 4.17224 18.9054 4.7747C18.9697 5.11816 18.9921 5.4757 18.9949 5.82478C19.0005 8.55556 19.0061 11.2863 18.9921 14.0171C18.9893 14.7068 18.8355 15.3797 18.5308 16.0047C18.3547 16.3622 18.159 16.7141 17.9521 17.0547C17.8654 17.1983 17.7256 17.3109 17.6138 17.4404C17.5383 17.5277 17.4852 17.6347 17.4013 17.7051C17.1162 17.9387 16.8282 18.1696 16.5318 18.3863C16.1348 18.6763 15.6847 18.8734 15.2234 19.0282C14.8152 19.1634 14.3959 19.2675 13.9625 19.2703C11.0857 19.2816 8.20606 19.2985 5.32922 19.29C4.92663 19.29 4.52403 19.1859 4.12424 19.1127C3.67133 19.0282 3.25476 18.8312 2.85217 18.6172C2.58937 18.4764 2.35173 18.2878 2.11409 18.1048C1.89322 17.9331 1.67236 17.7586 1.48784 17.553C1.26697 17.3053 1.07406 17.0322 0.889543 16.7563C0.607171 16.3312 0.391897 15.8695 0.263292 15.3741C0.182215 15.0644 0.115116 14.7491 0.0731799 14.4309C-0.0414464 13.5554 0.0200604 12.6742 0.0144689 11.7959C0.00608158 9.81678 0.00328582 7.83486 0.0144689 5.85575C0.0200604 5.0337 0.168236 4.23418 0.540072 3.49096C0.66029 3.24885 0.772121 2.99829 0.914705 2.76744C1.03213 2.57882 1.19149 2.41835 1.33407 2.24381C1.42633 2.1312 1.513 2.01015 1.61644 1.90598C1.95473 1.56252 2.33775 1.27819 2.75432 1.03608C3.24917 0.751737 3.77477 0.54341 4.32833 0.422355C4.64146 0.354789 4.96297 0.304115 5.28169 0.3013C6.68796 0.290039 8.09422 0.295669 9.50329 0.295669ZM1.82892 9.78582C1.82892 11.0949 1.82892 12.404 1.82892 13.7131C1.82892 13.8848 1.8429 14.0565 1.85688 14.2283C1.89043 14.6618 2.03021 15.0616 2.21753 15.4501C2.48592 16.0075 2.88572 16.4495 3.37498 16.807C4.00402 17.2687 4.72813 17.4883 5.50255 17.4911C8.17251 17.4967 10.8425 17.4967 13.5096 17.4911C13.7752 17.4911 14.0436 17.4601 14.3036 17.4038C15.2122 17.2124 15.9335 16.7057 16.4871 15.9709C16.968 15.3346 17.1972 14.597 17.2 13.8003C17.2056 11.2441 17.2028 8.68787 17.2 6.12883C17.2 5.8276 17.1777 5.52355 17.1441 5.22232C17.0742 4.62268 16.8254 4.08779 16.4731 3.6092C16.2047 3.24322 15.8748 2.93636 15.4918 2.6858C14.8991 2.29448 14.2393 2.10586 13.5404 2.10023C10.8844 2.08897 8.22842 2.0946 5.57245 2.09742C5.33481 2.09742 5.09157 2.11431 4.85673 2.15654C4.17456 2.28322 3.56509 2.56756 3.05067 3.04052C2.70679 3.35583 2.42162 3.71899 2.21194 4.14409C1.96032 4.65083 1.82333 5.17728 1.82333 5.74314C1.82892 7.09445 1.82892 8.44014 1.82892 9.78582Z" fill="#1A1A1A"/>
<path d="M9.57564 14.6567C8.6083 14.6567 7.78914 14.4371 7.03429 14.0064C6.25148 13.5587 5.63082 12.9394 5.19188 12.1427C4.90951 11.6331 4.7166 11.0926 4.63273 10.5183C4.56563 10.0707 4.55724 9.62305 4.61875 9.1698C4.69424 8.60956 4.85359 8.0803 5.10242 7.57919C5.27296 7.23573 5.49103 6.92324 5.73426 6.62483C6.03061 6.26166 6.37728 5.96043 6.7659 5.70988C7.33903 5.33545 7.96248 5.06519 8.64465 4.97228C8.96896 4.92724 9.29886 4.88501 9.62317 4.89064C10.2941 4.9019 10.9428 5.04548 11.5578 5.31856C12.0443 5.53533 12.4804 5.82812 12.8718 6.19128C13.6602 6.92324 14.1439 7.82412 14.3228 8.88546C14.3843 9.25988 14.4207 9.64557 14.4039 10.0228C14.3704 10.7632 14.1803 11.4698 13.814 12.123C13.5652 12.5678 13.2716 12.9732 12.897 13.3194C12.2959 13.8769 11.5998 14.2682 10.8086 14.4821C10.3752 14.6004 9.93349 14.6623 9.57564 14.6567ZM9.58682 12.9141C9.71542 12.8972 9.93629 12.8803 10.1544 12.838C10.666 12.7367 11.1273 12.5284 11.5271 12.1821C11.8905 11.864 12.2064 11.5149 12.3994 11.0644C12.651 10.4789 12.7293 9.87642 12.6258 9.24299C12.4888 8.42094 12.0862 7.75936 11.4292 7.2667C10.8142 6.805 10.1124 6.62483 9.34638 6.65579C8.77605 6.67832 8.25324 6.84441 7.77796 7.14846C7.26634 7.47221 6.88052 7.91983 6.61492 8.46599C6.32696 9.05719 6.26266 9.68498 6.3689 10.324C6.51707 11.1996 7.00913 11.8696 7.71925 12.3707C8.24485 12.7367 8.85153 12.8972 9.58682 12.9141Z" fill="#1A1A1A"/>
<path d="M14.5105 5.929C13.8368 5.94026 13.3391 5.40537 13.3559 4.76913C13.3727 4.04843 13.8535 3.61207 14.5161 3.60362C15.1508 3.59518 15.7099 4.09629 15.6708 4.86203C15.6428 5.411 15.1647 5.95434 14.5105 5.929Z" fill="#1A1A1A"/>
</g>
<defs>
<clipPath id="clip0_2_3772">
<rect width="19" height="19" fill="white" transform="translate(0 0.292969)"/>
</clipPath>
</defs>
</svg>
