<svg width="227" height="66" viewBox="0 0 227 66" fill="none" xmlns="http://www.w3.org/2000/svg">
<path d="M76.175 56V58H78.175V56H76.175ZM71.675 56H69.675V58H71.675V56ZM71.675 38.5V36.5H69.675V38.5H71.675ZM76.175 38.5H78.175V36.5H76.175V38.5ZM76.175 44.725H74.175V46.725H76.175V44.725ZM82.775 44.725V46.725H84.775V44.725H82.775ZM82.775 38.5V36.5H80.775V38.5H82.775ZM87.275 38.5H89.275V36.5H87.275V38.5ZM87.275 56V58H89.275V56H87.275ZM82.775 56H80.775V58H82.775V56ZM82.775 48.725H84.775V46.725H82.775V48.725ZM76.175 48.725V46.725H74.175V48.725H76.175ZM76.175 54H71.675V58H76.175V54ZM73.675 56V38.5H69.675V56H73.675ZM71.675 40.5H76.175V36.5H71.675V40.5ZM74.175 38.5V44.725H78.175V38.5H74.175ZM76.175 46.725H82.775V42.725H76.175V46.725ZM84.775 44.725V38.5H80.775V44.725H84.775ZM82.775 40.5H87.275V36.5H82.775V40.5ZM85.275 38.5V56H89.275V38.5H85.275ZM87.275 54H82.775V58H87.275V54ZM84.775 56V48.725H80.775V56H84.775ZM82.775 46.725H76.175V50.725H82.775V46.725ZM74.175 48.725V56H78.175V48.725H74.175ZM91.6453 38.5V36.5H89.6453V38.5H91.6453ZM96.1453 38.5H98.1453V36.5H96.1453V38.5ZM97.0203 51.35L95.6267 52.7846L97.0203 51.35ZM101.62 51.375L103.013 52.8102L103.014 52.8096L101.62 51.375ZM102.495 38.5V36.5H100.495V38.5H102.495ZM106.995 38.5H108.995V36.5H106.995V38.5ZM104.82 54.35L106.166 55.8299L106.174 55.8219L106.183 55.8138L104.82 54.35ZM93.8203 54.35L92.4575 55.8138L92.4662 55.8219L92.475 55.8299L93.8203 54.35ZM93.6453 48.675V38.5H89.6453V48.675H93.6453ZM91.6453 40.5H96.1453V36.5H91.6453V40.5ZM94.1453 38.5V48.9H98.1453V38.5H94.1453ZM94.1453 48.9C94.1453 50.3314 94.5455 51.7343 95.6267 52.7846L98.4139 49.9154C98.3284 49.8324 98.1453 49.602 98.1453 48.9H94.1453ZM95.6267 52.7846C96.6457 53.7745 97.9439 54.2 99.3203 54.2V50.2C98.7967 50.2 98.5615 50.0589 98.4139 49.9154L95.6267 52.7846ZM99.3203 54.2C100.684 54.2 101.993 53.8001 103.013 52.8102L100.227 49.9398C100.114 50.0499 99.8903 50.2 99.3203 50.2V54.2ZM103.014 52.8096C104.101 51.7537 104.495 50.3375 104.495 48.9H100.495C100.495 49.6292 100.306 49.863 100.227 49.9404L103.014 52.8096ZM104.495 48.9V38.5H100.495V48.9H104.495ZM102.495 40.5H106.995V36.5H102.495V40.5ZM104.995 38.5V48.675H108.995V38.5H104.995ZM104.995 48.675C104.995 50.6893 104.411 51.9983 103.457 52.8862L106.183 55.8138C108.129 54.0017 108.995 51.5274 108.995 48.675H104.995ZM103.475 52.8701C102.418 53.8311 101.082 54.35 99.3203 54.35V58.35C101.959 58.35 104.289 57.5356 106.166 55.8299L103.475 52.8701ZM99.3203 54.35C97.5588 54.35 96.2227 53.8311 95.1657 52.8701L92.475 55.8299C94.3513 57.5356 96.6818 58.35 99.3203 58.35V54.35ZM95.1831 52.8862C94.2295 51.9983 93.6453 50.6893 93.6453 48.675H89.6453C89.6453 51.5274 90.5112 54.0017 92.4575 55.8138L95.1831 52.8862ZM115.882 56V58H117.882V56H115.882ZM111.382 56H109.382V58H111.382V56ZM111.382 38.5V36.5H109.382V38.5H111.382ZM115.857 38.5L117.528 37.4007L116.935 36.5H115.857V38.5ZM120.282 45.225L118.611 46.3243L120.277 48.8564L121.95 46.3287L120.282 45.225ZM124.732 38.5V36.5H123.657L123.064 37.3963L124.732 38.5ZM129.182 38.5H131.182V36.5H129.182V38.5ZM129.182 56V58H131.182V56H129.182ZM124.707 56H122.707V58H124.707V56ZM124.707 45.325H126.707V38.7048L123.042 44.2176L124.707 45.325ZM121.582 50.025V52.025H122.654L123.247 51.1324L121.582 50.025ZM119.107 50.025L117.458 51.1566L118.054 52.025H119.107V50.025ZM115.882 45.325L117.531 44.1934L113.882 38.8754V45.325H115.882ZM115.882 54H111.382V58H115.882V54ZM113.382 56V38.5H109.382V56H113.382ZM111.382 40.5H115.857V36.5H111.382V40.5ZM114.186 39.5993L118.611 46.3243L121.953 44.1257L117.528 37.4007L114.186 39.5993ZM121.95 46.3287L126.4 39.6037L123.064 37.3963L118.614 44.1213L121.95 46.3287ZM124.732 40.5H129.182V36.5H124.732V40.5ZM127.182 38.5V56H131.182V38.5H127.182ZM129.182 54H124.707V58H129.182V54ZM126.707 56V45.325H122.707V56H126.707ZM123.042 44.2176L119.917 48.9176L123.247 51.1324L126.372 46.4324L123.042 44.2176ZM121.582 48.025H119.107V52.025H121.582V48.025ZM120.756 48.8934L117.531 44.1934L114.233 46.4566L117.458 51.1566L120.756 48.8934ZM113.882 45.325V56H117.882V45.325H113.882ZM138.275 56V58H140.275V56H138.275ZM133.775 56H131.775V58H133.775V56ZM133.775 38.5V36.5H131.775V38.5H133.775ZM138.25 38.5L139.92 37.4007L139.328 36.5H138.25V38.5ZM142.675 45.225L141.004 46.3243L142.67 48.8564L144.343 46.3287L142.675 45.225ZM147.125 38.5V36.5H146.05L145.457 37.3963L147.125 38.5ZM151.575 38.5H153.575V36.5H151.575V38.5ZM151.575 56V58H153.575V56H151.575ZM147.1 56H145.1V58H147.1V56ZM147.1 45.325H149.1V38.7048L145.434 44.2176L147.1 45.325ZM143.975 50.025V52.025H145.047L145.64 51.1324L143.975 50.025ZM141.5 50.025L139.851 51.1566L140.446 52.025H141.5V50.025ZM138.275 45.325L139.924 44.1934L136.275 38.8754V45.325H138.275ZM138.275 54H133.775V58H138.275V54ZM135.775 56V38.5H131.775V56H135.775ZM133.775 40.5H138.25V36.5H133.775V40.5ZM136.579 39.5993L141.004 46.3243L144.345 44.1257L139.92 37.4007L136.579 39.5993ZM144.343 46.3287L148.793 39.6037L145.457 37.3963L141.007 44.1213L144.343 46.3287ZM147.125 40.5H151.575V36.5H147.125V40.5ZM149.575 38.5V56H153.575V38.5H149.575ZM151.575 54H147.1V58H151.575V54ZM149.1 56V45.325H145.1V56H149.1ZM145.434 44.2176L142.309 48.9176L145.64 51.1324L148.765 46.4324L145.434 44.2176ZM143.975 48.025H141.5V52.025H143.975V48.025ZM143.149 48.8934L139.924 44.1934L136.626 46.4566L139.851 51.1566L143.149 48.8934ZM136.275 45.325V56H140.275V45.325H136.275ZM169.667 56V58H171.667V56H169.667ZM156.167 56H154.167V58H156.167V56ZM156.167 38.5V36.5H154.167V38.5H156.167ZM169.467 38.5H171.467V36.5H169.467V38.5ZM169.467 42.45V44.45H171.467V42.45H169.467ZM160.667 42.45V40.45H158.667V42.45H160.667ZM160.667 44.825H158.667V46.825H160.667V44.825ZM167.667 44.825H169.667V42.825H167.667V44.825ZM167.667 48.625V50.625H169.667V48.625H167.667ZM160.667 48.625V46.625H158.667V48.625H160.667ZM160.667 52.05H158.667V54.05H160.667V52.05ZM169.667 52.05H171.667V50.05H169.667V52.05ZM169.667 54H156.167V58H169.667V54ZM158.167 56V38.5H154.167V56H158.167ZM156.167 40.5H169.467V36.5H156.167V40.5ZM167.467 38.5V42.45H171.467V38.5H167.467ZM169.467 40.45H160.667V44.45H169.467V40.45ZM158.667 42.45V44.825H162.667V42.45H158.667ZM160.667 46.825H167.667V42.825H160.667V46.825ZM165.667 44.825V48.625H169.667V44.825H165.667ZM167.667 46.625H160.667V50.625H167.667V46.625ZM158.667 48.625V52.05H162.667V48.625H158.667ZM160.667 54.05H169.667V50.05H160.667V54.05ZM167.667 52.05V56H171.667V52.05H167.667ZM177.957 56V58H179.957V56H177.957ZM173.457 56H171.457V58H173.457V56ZM173.457 38.5V36.5H171.457V38.5H173.457ZM186.257 40.025L184.911 41.5039L184.928 41.5192L184.945 41.5342L186.257 40.025ZM187.082 46.9L188.727 48.0384V48.0384L187.082 46.9ZM184.582 48.825L183.855 46.9621L181.422 47.9124L182.974 50.0133L184.582 48.825ZM189.882 56V58H193.846L191.491 54.8117L189.882 56ZM184.707 56L183.101 57.1913L183.7 58H184.707V56ZM179.757 49.325L181.364 48.1337L180.764 47.325H179.757V49.325ZM177.957 49.325V47.325H175.957V49.325H177.957ZM177.957 42.3V40.3H175.957V42.3H177.957ZM177.957 45.65H175.957V47.65H177.957V45.65ZM182.882 45.225L184.141 46.7795L184.149 46.7729L182.882 45.225ZM182.882 42.775L181.54 44.2581L181.577 44.2914L181.616 44.3229L182.882 42.775ZM177.957 54H173.457V58H177.957V54ZM175.457 56V38.5H171.457V56H175.457ZM173.457 40.5H181.682V36.5H173.457V40.5ZM181.682 40.5C183.262 40.5 184.257 40.9083 184.911 41.5039L187.604 38.5461C186.024 37.1083 183.969 36.5 181.682 36.5V40.5ZM184.945 41.5342C185.639 42.1378 185.982 42.8698 185.982 43.9H189.982C189.982 41.7635 189.175 39.9122 187.57 38.5158L184.945 41.5342ZM185.982 43.9C185.982 44.6587 185.789 45.2549 185.438 45.7616L188.727 48.0384C189.576 46.8118 189.982 45.408 189.982 43.9H185.982ZM185.438 45.7616C185.084 46.2725 184.584 46.6772 183.855 46.9621L185.31 50.6879C186.714 50.1395 187.88 49.2608 188.727 48.0384L185.438 45.7616ZM182.974 50.0133L188.274 57.1883L191.491 54.8117L186.191 47.6367L182.974 50.0133ZM189.882 54H184.707V58H189.882V54ZM186.314 54.8087L181.364 48.1337L178.151 50.5163L183.101 57.1913L186.314 54.8087ZM179.757 47.325H177.957V51.325H179.757V47.325ZM175.957 49.325V56H179.957V49.325H175.957ZM175.957 42.3V45.65H179.957V42.3H175.957ZM177.957 47.65H181.432V43.65H177.957V47.65ZM181.432 47.65C182.339 47.65 183.323 47.4415 184.141 46.7795L181.624 43.6705C181.677 43.6271 181.713 43.6192 181.695 43.6245C181.671 43.6314 181.591 43.65 181.432 43.65V47.65ZM184.149 46.7729C185.026 46.0555 185.432 45.0546 185.432 44H181.432C181.432 44.0193 181.43 43.9648 181.47 43.8746C181.513 43.7794 181.573 43.7117 181.616 43.6771L184.149 46.7729ZM185.432 44C185.432 42.9454 185.026 41.9445 184.149 41.2271L181.616 44.3229C181.573 44.2883 181.513 44.2206 181.47 44.1254C181.43 44.0352 181.432 43.9807 181.432 44H185.432ZM184.224 41.2919C183.405 40.551 182.389 40.3 181.432 40.3V44.3C181.572 44.3 181.631 44.3183 181.635 44.3194C181.635 44.3196 181.624 44.3158 181.604 44.3047C181.585 44.2934 181.562 44.2778 181.54 44.2581L184.224 41.2919ZM181.432 40.3H177.957V44.3H181.432V40.3Z" fill="#1072D8"/>
<path d="M77.05 20.8L75.5967 22.174L75.5974 22.1748L77.05 20.8ZM83.625 20.8L82.1724 19.4252L83.625 20.8ZM83.625 13.7L82.1724 15.0748V15.0748L83.625 13.7ZM77.05 13.7L75.5974 12.3252L75.5967 12.326L77.05 13.7ZM86.95 23.7L85.5291 22.2925L86.95 23.7ZM73.75 23.7L72.3291 25.1075L73.75 23.7ZM73.75 10.8L72.3291 9.3925V9.3925L73.75 10.8ZM86.95 10.8L85.5291 12.2075L86.95 10.8ZM75.5974 22.1748C76.8689 23.5182 78.4991 24.2 80.35 24.2V20.2C79.5676 20.2 78.9978 19.9485 78.5026 19.4252L75.5974 22.1748ZM80.35 24.2C82.1923 24.2 83.8116 23.5125 85.0776 22.1748L82.1724 19.4252C81.6718 19.9542 81.1077 20.2 80.35 20.2V24.2ZM85.0776 22.1748C86.3541 20.826 86.95 19.1307 86.95 17.25H82.95C82.95 18.236 82.6626 18.9073 82.1724 19.4252L85.0776 22.1748ZM86.95 17.25C86.95 15.3693 86.3541 13.674 85.0776 12.3252L82.1724 15.0748C82.6626 15.5927 82.95 16.264 82.95 17.25H86.95ZM85.0776 12.3252C83.8116 10.9875 82.1923 10.3 80.35 10.3V14.3C81.1077 14.3 81.6718 14.5458 82.1724 15.0748L85.0776 12.3252ZM80.35 10.3C78.4991 10.3 76.8689 10.9818 75.5974 12.3252L78.5026 15.0748C78.9978 14.5515 79.5676 14.3 80.35 14.3V10.3ZM75.5967 12.326C74.3263 13.6696 73.75 15.3711 73.75 17.25H77.75C77.75 16.2289 78.0403 15.5637 78.5033 15.074L75.5967 12.326ZM73.75 17.25C73.75 19.1289 74.3263 20.8304 75.5967 22.174L78.5033 19.426C78.0403 18.9363 77.75 18.2711 77.75 17.25H73.75ZM85.5291 22.2925C84.1812 23.6532 82.5052 24.35 80.35 24.35V28.35C83.4948 28.35 86.2188 27.2801 88.3709 25.1075L85.5291 22.2925ZM80.35 24.35C78.1948 24.35 76.5188 23.6532 75.1709 22.2925L72.3291 25.1075C74.4812 27.2801 77.2052 28.35 80.35 28.35V24.35ZM75.1709 22.2925C73.7996 20.9081 73.125 19.2673 73.125 17.25H69.125C69.125 20.2994 70.2004 22.9585 72.3291 25.1075L75.1709 22.2925ZM73.125 17.25C73.125 15.2327 73.7996 13.5919 75.1709 12.2075L72.3291 9.3925C70.2004 11.5415 69.125 14.2006 69.125 17.25H73.125ZM75.1709 12.2075C76.5188 10.8468 78.1948 10.15 80.35 10.15V6.15C77.2052 6.15 74.4812 7.21988 72.3291 9.3925L75.1709 12.2075ZM80.35 10.15C82.5052 10.15 84.1812 10.8468 85.5291 12.2075L88.3709 9.3925C86.2188 7.21988 83.4948 6.15 80.35 6.15V10.15ZM85.5291 12.2075C86.9004 13.5919 87.575 15.2327 87.575 17.25H91.575C91.575 14.2006 90.4996 11.5415 88.3709 9.3925L85.5291 12.2075ZM87.575 17.25C87.575 19.2673 86.9004 20.9081 85.5291 22.2925L88.3709 25.1075C90.4996 22.9585 91.575 20.2994 91.575 17.25H87.575ZM98.1281 26V28H100.128V26H98.1281ZM93.6281 26H91.6281V28H93.6281V26ZM93.6281 8.5V6.5H91.6281V8.5H93.6281ZM106.928 8.5H108.928V6.5H106.928V8.5ZM106.928 12.45V14.45H108.928V12.45H106.928ZM98.1281 12.45V10.45H96.1281V12.45H98.1281ZM98.1281 15H96.1281V17H98.1281V15ZM104.703 15H106.703V13H104.703V15ZM104.703 18.8V20.8H106.703V18.8H104.703ZM98.1281 18.8V16.8H96.1281V18.8H98.1281ZM98.1281 24H93.6281V28H98.1281V24ZM95.6281 26V8.5H91.6281V26H95.6281ZM93.6281 10.5H106.928V6.5H93.6281V10.5ZM104.928 8.5V12.45H108.928V8.5H104.928ZM106.928 10.45H98.1281V14.45H106.928V10.45ZM96.1281 12.45V15H100.128V12.45H96.1281ZM98.1281 17H104.703V13H98.1281V17ZM102.703 15V18.8H106.703V15H102.703ZM104.703 16.8H98.1281V20.8H104.703V16.8ZM96.1281 18.8V26H100.128V18.8H96.1281ZM115.223 26V28H117.223V26H115.223ZM110.723 26H108.723V28H110.723V26ZM110.723 8.5V6.5H108.723V8.5H110.723ZM124.023 8.5H126.023V6.5H124.023V8.5ZM124.023 12.45V14.45H126.023V12.45H124.023ZM115.223 12.45V10.45H113.223V12.45H115.223ZM115.223 15H113.223V17H115.223V15ZM121.798 15H123.798V13H121.798V15ZM121.798 18.8V20.8H123.798V18.8H121.798ZM115.223 18.8V16.8H113.223V18.8H115.223ZM115.223 24H110.723V28H115.223V24ZM112.723 26V8.5H108.723V26H112.723ZM110.723 10.5H124.023V6.5H110.723V10.5ZM122.023 8.5V12.45H126.023V8.5H122.023ZM124.023 10.45H115.223V14.45H124.023V10.45ZM113.223 12.45V15H117.223V12.45H113.223ZM115.223 17H121.798V13H115.223V17ZM119.798 15V18.8H123.798V15H119.798ZM121.798 16.8H115.223V20.8H121.798V16.8ZM113.223 18.8V26H117.223V18.8H113.223ZM141.318 26V28H143.318V26H141.318ZM127.818 26H125.818V28H127.818V26ZM127.818 8.5V6.5H125.818V8.5H127.818ZM141.118 8.5H143.118V6.5H141.118V8.5ZM141.118 12.45V14.45H143.118V12.45H141.118ZM132.318 12.45V10.45H130.318V12.45H132.318ZM132.318 14.825H130.318V16.825H132.318V14.825ZM139.318 14.825H141.318V12.825H139.318V14.825ZM139.318 18.625V20.625H141.318V18.625H139.318ZM132.318 18.625V16.625H130.318V18.625H132.318ZM132.318 22.05H130.318V24.05H132.318V22.05ZM141.318 22.05H143.318V20.05H141.318V22.05ZM141.318 24H127.818V28H141.318V24ZM129.818 26V8.5H125.818V26H129.818ZM127.818 10.5H141.118V6.5H127.818V10.5ZM139.118 8.5V12.45H143.118V8.5H139.118ZM141.118 10.45H132.318V14.45H141.118V10.45ZM130.318 12.45V14.825H134.318V12.45H130.318ZM132.318 16.825H139.318V12.825H132.318V16.825ZM137.318 14.825V18.625H141.318V14.825H137.318ZM139.318 16.625H132.318V20.625H139.318V16.625ZM130.318 18.625V22.05H134.318V18.625H130.318ZM132.318 24.05H141.318V20.05H132.318V24.05ZM139.318 22.05V26H143.318V22.05H139.318ZM149.608 26V28H151.608V26H149.608ZM145.108 26H143.108V28H145.108V26ZM145.108 8.5V6.5H143.108V8.5H145.108ZM157.908 10.025L156.561 11.5039L156.578 11.5192L156.595 11.5342L157.908 10.025ZM158.733 16.9L160.377 18.0384V18.0384L158.733 16.9ZM156.233 18.825L155.505 16.9621L153.072 17.9124L154.624 20.0133L156.233 18.825ZM161.533 26V28H165.496L163.141 24.8117L161.533 26ZM156.358 26L154.751 27.1913L155.351 28H156.358V26ZM151.408 19.325L153.014 18.1337L152.414 17.325H151.408V19.325ZM149.608 19.325V17.325H147.608V19.325H149.608ZM149.608 12.3V10.3H147.608V12.3H149.608ZM149.608 15.65H147.608V17.65H149.608V15.65ZM154.533 15.225L155.791 16.7795L155.799 16.7729L154.533 15.225ZM154.533 12.775L153.191 14.2581L153.228 14.2914L153.266 14.3229L154.533 12.775ZM149.608 24H145.108V28H149.608V24ZM147.108 26V8.5H143.108V26H147.108ZM145.108 10.5H153.333V6.5H145.108V10.5ZM153.333 10.5C154.912 10.5 155.907 10.9083 156.561 11.5039L159.254 8.54612C157.675 7.10831 155.62 6.5 153.333 6.5V10.5ZM156.595 11.5342C157.289 12.1378 157.633 12.8698 157.633 13.9H161.633C161.633 11.7635 160.826 9.91221 159.22 8.51579L156.595 11.5342ZM157.633 13.9C157.633 14.6587 157.439 15.2549 157.088 15.7616L160.377 18.0384C161.226 16.8118 161.633 15.408 161.633 13.9H157.633ZM157.088 15.7616C156.735 16.2725 156.234 16.6772 155.505 16.9621L156.96 20.6879C158.364 20.1395 159.531 19.2608 160.377 18.0384L157.088 15.7616ZM154.624 20.0133L159.924 27.1883L163.141 24.8117L157.841 17.6367L154.624 20.0133ZM161.533 24H156.358V28H161.533V24ZM157.964 24.8087L153.014 18.1337L149.801 20.5163L154.751 27.1913L157.964 24.8087ZM151.408 17.325H149.608V21.325H151.408V17.325ZM147.608 19.325V26H151.608V19.325H147.608ZM147.608 12.3V15.65H151.608V12.3H147.608ZM149.608 17.65H153.083V13.65H149.608V17.65ZM153.083 17.65C153.989 17.65 154.973 17.4415 155.791 16.7795L153.274 13.6705C153.328 13.6271 153.363 13.6192 153.345 13.6245C153.322 13.6314 153.242 13.65 153.083 13.65V17.65ZM155.799 16.7729C156.676 16.0555 157.083 15.0546 157.083 14H153.083C153.083 14.0193 153.08 13.9648 153.121 13.8746C153.163 13.7794 153.224 13.7117 153.266 13.6771L155.799 16.7729ZM157.083 14C157.083 12.9454 156.676 11.9445 155.799 11.2271L153.266 14.3229C153.224 14.2883 153.163 14.2206 153.121 14.1254C153.08 14.0352 153.083 13.9807 153.083 14H157.083ZM155.874 11.2919C155.056 10.551 154.039 10.3 153.083 10.3V14.3C153.223 14.3 153.282 14.3183 153.285 14.3194C153.286 14.3196 153.274 14.3158 153.255 14.3047C153.235 14.2934 153.213 14.2778 153.191 14.2581L155.874 11.2919ZM153.083 10.3H149.608V14.3H153.083V10.3ZM172.589 26V28H174.589V26H172.589ZM168.089 26H166.089V28H168.089V26ZM168.089 12.45H170.089V10.45H168.089V12.45ZM162.839 12.45H160.839V14.45H162.839V12.45ZM162.839 8.5V6.5H160.839V8.5H162.839ZM177.864 8.5H179.864V6.5H177.864V8.5ZM177.864 12.45V14.45H179.864V12.45H177.864ZM172.589 12.45V10.45H170.589V12.45H172.589ZM172.589 24H168.089V28H172.589V24ZM170.089 26V12.45H166.089V26H170.089ZM168.089 10.45H162.839V14.45H168.089V10.45ZM164.839 12.45V8.5H160.839V12.45H164.839ZM162.839 10.5H177.864V6.5H162.839V10.5ZM175.864 8.5V12.45H179.864V8.5H175.864ZM177.864 10.45H172.589V14.45H177.864V10.45ZM170.589 12.45V26H174.589V12.45H170.589ZM194.994 26V28H196.994V26H194.994ZM181.494 26H179.494V28H181.494V26ZM181.494 8.5V6.5H179.494V8.5H181.494ZM194.794 8.5H196.794V6.5H194.794V8.5ZM194.794 12.45V14.45H196.794V12.45H194.794ZM185.994 12.45V10.45H183.994V12.45H185.994ZM185.994 14.825H183.994V16.825H185.994V14.825ZM192.994 14.825H194.994V12.825H192.994V14.825ZM192.994 18.625V20.625H194.994V18.625H192.994ZM185.994 18.625V16.625H183.994V18.625H185.994ZM185.994 22.05H183.994V24.05H185.994V22.05ZM194.994 22.05H196.994V20.05H194.994V22.05ZM194.994 24H181.494V28H194.994V24ZM183.494 26V8.5H179.494V26H183.494ZM181.494 10.5H194.794V6.5H181.494V10.5ZM192.794 8.5V12.45H196.794V8.5H192.794ZM194.794 10.45H185.994V14.45H194.794V10.45ZM183.994 12.45V14.825H187.994V12.45H183.994ZM185.994 16.825H192.994V12.825H185.994V16.825ZM190.994 14.825V18.625H194.994V14.825H190.994ZM192.994 16.625H185.994V20.625H192.994V16.625ZM183.994 18.625V22.05H187.994V18.625H183.994ZM185.994 24.05H194.994V20.05H185.994V24.05ZM192.994 22.05V26H196.994V22.05H192.994ZM203.209 26V28H205.209V26H203.209ZM198.784 26H196.784V28H198.784V26ZM198.784 8.5V6.5H196.784V8.5H198.784ZM202.634 8.5L204.2 7.25557L203.6 6.5H202.634V8.5ZM210.284 18.125L208.719 19.3694L212.284 23.8557V18.125H210.284ZM210.284 8.5V6.5H208.284V8.5H210.284ZM214.684 8.5H216.684V6.5H214.684V8.5ZM214.684 26V28H216.684V26H214.684ZM210.959 26L209.398 27.2504L209.999 28H210.959V26ZM203.209 16.325L204.77 15.0746L201.209 10.6292V16.325H203.209ZM203.209 24H198.784V28H203.209V24ZM200.784 26V8.5H196.784V26H200.784ZM198.784 10.5H202.634V6.5H198.784V10.5ZM201.069 9.74442L208.719 19.3694L211.85 16.8806L204.2 7.25557L201.069 9.74442ZM212.284 18.125V8.5H208.284V18.125H212.284ZM210.284 10.5H214.684V6.5H210.284V10.5ZM212.684 8.5V26H216.684V8.5H212.684ZM214.684 24H210.959V28H214.684V24ZM212.52 24.7496L204.77 15.0746L201.648 17.5754L209.398 27.2504L212.52 24.7496ZM201.209 16.325V26H205.209V16.325H201.209Z" fill="#1A1A1A"/>
<path d="M48.9743 12.4161C48.9743 12.0701 48.8485 11.5983 48.5969 11.3467C46.8669 9.5538 45.074 7.82382 43.3126 6.06238C42.8407 5.59056 42.2746 5.46474 41.614 5.46474C38.1226 5.49619 34.6312 5.4962 31.1712 5.4962C29.7557 5.4962 29.6299 5.43329 29.6928 3.98639C29.7557 2.97986 29.3468 2.13059 28.7807 1.50151C27.9314 0.526424 26.7676 -0.13412 25.3521 0.0231518C24.0625 0.180423 22.7729 -0.259935 21.4833 0.526422C20.0049 1.40714 19.2815 2.53949 19.2815 4.20657C19.2815 5.40183 19.1557 5.52765 17.9918 5.52765C14.5948 5.52765 11.1663 5.59056 7.7692 5.52765C6.76267 5.4962 6.03921 5.87365 5.37867 6.53419C4.1205 7.82382 2.76798 9.01907 1.54126 10.3402C0.975081 10.9692 0.094359 11.4725 0.094359 12.479C0.0629047 17.6376 0 22.796 0 27.9545C0 28.3635 0.125811 28.8982 0.377446 29.1813C2.07598 31.0056 3.80596 32.7671 5.53595 34.5599C6.10212 35.1261 6.76267 35.2519 7.51757 35.2519C10.7574 35.2205 14.0286 35.2519 17.2684 35.2519C19.1557 35.2519 19.1557 35.2519 19.1557 37.1707C19.1557 40.5677 19.1557 43.9648 19.1557 47.3933C19.1557 47.4562 19.1557 47.5191 19.1871 47.6135C19.1871 47.6764 19.1871 47.7393 19.1871 47.8022C19.1871 47.8337 19.1871 47.8337 19.1871 47.8651C19.1871 47.9595 19.1871 48.0539 19.1871 48.1168C19.1871 48.1797 19.1871 48.2426 19.1871 48.3055C19.1871 48.3684 19.1871 48.4313 19.1871 48.5257V48.5571C19.2186 48.6829 19.2186 48.7773 19.2186 48.9031C19.2186 48.9346 19.2186 48.966 19.2186 48.9975C19.2186 49.0604 19.2186 49.1233 19.2186 49.1547V49.1862V49.2491C19.2186 49.312 19.2186 49.3749 19.2186 49.4693C19.2186 53.2753 19.2186 57.1127 19.2186 60.9186C19.2186 61.7679 19.2815 62.5543 19.7218 63.4035C20.3509 64.5988 21.4204 65.2593 22.5213 65.3537C24.1569 65.4795 25.8554 65.857 27.491 64.8819C28.5605 64.2528 29.5985 63.0575 29.5985 61.7365C29.6299 57.6159 29.6928 53.4954 29.6928 49.4064C29.7243 45.3173 29.7243 41.2283 29.7243 37.1392C29.7243 35.3149 29.8187 35.2519 31.7059 35.2834C35.1344 35.3148 38.563 35.2834 41.9915 35.2519C42.3375 35.2519 42.7778 35.0947 43.0295 34.843C44.7594 33.2389 46.458 31.6033 48.0936 29.9047C48.5025 29.4958 48.8799 28.8353 48.8799 28.3006C49.0372 23.0162 49.0058 17.7005 48.9743 12.4161ZM5.41013 30.0305C5.31577 30.2507 5.18995 30.5653 5.00123 30.6282C4.84396 30.6911 4.52941 30.4709 4.37214 30.3136C3.86887 29.8418 3.42851 29.3071 2.89379 28.8982C2.20179 28.3635 2.10743 27.64 2.10743 26.8537C2.10743 22.4186 2.13888 17.9835 2.07597 13.5799C2.07597 12.542 2.51634 11.85 3.17687 11.2209C3.55433 10.8434 3.96324 10.466 4.34069 10.0571C4.71814 9.64816 5.18996 9.67962 5.34723 10.2458C5.37868 10.3402 5.41013 10.466 5.44159 10.5918V21.8839C5.44159 24.3688 5.44159 26.8537 5.44159 29.3385C5.47304 29.5587 5.50449 29.8104 5.41013 30.0305ZM23.5278 2.1935C24.3456 2.1935 25.132 2.1935 25.9498 2.1935C27.0192 2.22495 27.4281 2.6024 27.491 3.64039C27.6168 5.4962 27.5854 5.52765 25.7296 5.52765C25.3207 5.52765 24.8803 5.52765 24.4714 5.52765C23.7794 5.52765 23.056 5.52765 22.364 5.52765C21.7349 5.52765 21.4204 5.30748 21.4518 4.64694C21.4518 4.52112 21.4518 4.3953 21.4518 4.26948C21.4518 2.44513 21.7035 2.1935 23.5278 2.1935ZM27.4596 62.1139C27.4281 62.8059 26.9878 63.2148 26.2958 63.2463C25.7296 63.2777 25.132 63.2463 24.5658 63.2463C23.9996 63.2463 23.402 63.2777 22.8358 63.2463C22.0809 63.1834 21.5147 62.6486 21.4833 61.8623C21.4518 61.0445 21.4518 60.2267 21.4833 59.4403C21.4833 59.1887 21.672 58.8112 21.8607 58.7483C22.1124 58.6854 22.4584 58.8112 22.71 58.937C23.1818 59.1887 23.5907 59.5661 24.094 59.7863C24.3456 59.8807 24.7231 59.8492 24.9747 59.7234C25.478 59.4717 25.9183 59.0943 26.3901 58.7798C26.9563 58.4338 27.4596 58.6539 27.491 59.3145C27.5225 60.2581 27.5225 61.2017 27.4596 62.1139ZM26.5474 35.2519C27.1136 35.2519 27.4281 35.5036 27.4596 36.1012C27.4596 36.8561 27.491 37.611 27.4596 38.3659C27.4596 38.6176 27.3023 38.9321 27.1136 39.0894C26.6103 39.5297 26.0756 39.9701 25.5094 40.3161C24.6602 40.8508 23.4963 40.4734 22.3011 39.5297C21.5462 38.9321 21.4833 38.2401 21.4833 37.3908C21.4833 34.8745 21.5462 35.2205 23.6536 35.2205C23.9367 35.2205 24.2198 35.2205 24.5029 35.2205C25.1949 35.2834 25.8869 35.2834 26.5474 35.2519ZM21.4833 46.0722C21.5462 45.0971 21.4833 44.0906 21.5462 43.0841C21.5462 42.801 21.7034 42.4235 21.9236 42.2977C22.0809 42.2034 22.4269 42.455 22.71 42.5808C23.2762 42.8639 23.8738 43.3986 24.44 43.3986C25.0691 43.3672 25.6982 42.8639 26.3272 42.5808C26.5789 42.455 26.9249 42.2348 27.1136 42.2977C27.3338 42.3921 27.4596 42.801 27.491 43.0526C27.491 43.1784 27.5225 43.3357 27.5225 43.4615V44.2793C27.5225 44.4681 27.5225 44.6568 27.5225 44.8455V46.6069C27.2709 47.4877 26.5474 48.0853 25.6352 48.5886C24.8489 49.0289 24.094 48.9975 23.3391 48.5257C22.9931 48.3055 22.6785 48.0224 22.3325 47.7708C21.672 47.3618 21.4204 46.8271 21.4833 46.0722ZM21.5147 51.2622C21.5462 50.9791 21.7034 50.6331 21.9236 50.5073C22.0809 50.4129 22.4584 50.6016 22.6785 50.7275C23.1503 51.0106 23.5593 51.388 24.0625 51.6082C24.3142 51.734 24.7545 51.7025 25.0062 51.5767C25.5409 51.3251 25.9812 50.9162 26.4845 50.5702C26.9563 50.2556 27.4281 50.4129 27.4596 50.9791C27.5225 52.3945 27.5225 53.81 27.4596 55.194C27.4596 55.4771 27.1136 55.7602 26.8619 55.9803C26.107 56.6094 25.3836 57.2699 24.2512 57.1441C22.8673 57.0183 21.4833 55.6343 21.4833 54.2189C21.4833 53.8414 21.4833 53.4325 21.4833 53.0551C21.4833 53.0551 21.4833 53.0551 21.5147 53.0551C21.4833 52.4574 21.4518 51.8598 21.5147 51.2622ZM41.268 31.8234C41.268 32.7985 41.1107 32.9558 40.1042 32.9558C29.7243 32.9872 19.3444 33.0187 8.96447 33.0187C7.80066 33.0187 7.64339 32.8614 7.64339 31.6976C7.61193 24.1171 7.61193 16.5681 7.61193 8.98762C7.61193 7.72945 7.67485 7.66654 8.96447 7.66654C14.123 7.66654 19.2815 7.66654 24.44 7.66654V7.69799C29.5985 7.69799 34.757 7.69799 39.9155 7.69799C41.0793 7.69799 41.2366 7.82381 41.2366 8.98762C41.268 16.631 41.268 24.2115 41.268 31.8234ZM46.7725 15.7503C46.804 19.399 46.7411 23.0162 46.7725 26.6649C46.7725 27.64 46.5523 28.3949 45.7974 29.024C45.3256 29.4015 44.9167 29.8418 44.5393 30.3136C44.0989 30.8169 43.8158 30.6282 43.6271 30.1563C43.5013 29.8418 43.5013 29.4958 43.5013 29.1498C43.5013 26.2246 43.5013 23.2993 43.5013 20.3426H43.4698C43.4698 17.4803 43.4698 14.6494 43.4698 11.7871C43.4698 11.504 43.4384 11.1894 43.5013 10.9378C43.5956 10.6232 43.8158 10.3716 43.9731 10.0885C44.1933 10.2458 44.4763 10.3402 44.6336 10.5289C47.2443 13.1081 46.7411 12.0387 46.7725 15.7503Z" fill="#1A1A1A"/>
</svg>
