<svg width="20" height="15" viewBox="0 0 20 15" fill="none" xmlns="http://www.w3.org/2000/svg">
<path d="M20 1.53651C20 5.51024 20 9.48397 20 13.4577C19.9951 13.4673 19.9853 13.4818 19.9853 13.4914C19.8434 14.4162 19.0557 15.0279 18.0576 14.999C17.1867 14.9749 16.3108 14.9942 15.4399 14.9942C10.9141 14.9942 6.38829 14.9942 1.86247 14.9942C0.776273 14.9942 0.00321373 14.2621 0.00321373 13.2169C-0.00167905 9.40208 -0.00167875 5.5873 0.00810681 1.77734C0.00810681 1.51242 0.0766063 1.22343 0.18914 0.982594C0.521849 0.293815 1.11877 0 1.88204 0C7.29345 0 12.7049 0 18.1114 0C18.1554 0 18.2044 0 18.2484 0C18.8062 0.0240832 19.2661 0.236015 19.6184 0.664696C19.8288 0.924794 19.9266 1.22824 20 1.53651ZM17.9401 1.17044C12.6413 1.17044 7.34728 1.17044 2.01904 1.17044C4.70517 3.7907 7.36195 6.38686 10.0138 8.9734C12.6657 6.36278 15.3029 3.76661 17.9401 1.17044ZM12.3477 8.32315C12.3037 8.37614 12.2645 8.43394 12.2156 8.4821C11.6529 9.03602 11.0951 9.58993 10.5325 10.139C10.1998 10.4666 9.88663 10.4666 9.55392 10.139C8.97168 9.57066 8.38944 9.0023 7.8072 8.43394C7.75827 8.38577 7.70445 8.34242 7.68977 8.32797C5.81094 10.1776 3.94679 12.0127 2.09732 13.8334C7.35706 13.8334 12.6559 13.8334 17.9499 13.8334C16.0858 12.0031 14.2363 10.1776 12.3477 8.32315ZM1.17748 12.9134C3.02206 11.0975 4.88621 9.2624 6.76014 7.41763C4.92535 5.63065 3.06609 3.81478 1.17748 1.97001C1.17748 5.66919 1.17748 9.3202 1.17748 12.9134ZM13.2724 7.48024C15.1219 9.30093 16.9763 11.1264 18.816 12.9375C18.816 9.3202 18.816 5.66919 18.816 2.02781C16.9567 3.85331 15.1072 5.67882 13.2724 7.48024Z" fill="#1A1A1A"/>
</svg>
