<svg width="19" height="19" viewBox="0 0 19 19" fill="none" xmlns="http://www.w3.org/2000/svg">
<path d="M5.45022 0.00991849C5.68819 0.0991794 5.81214 0.282661 5.90138 0.510772C6.65497 2.41005 7.41848 4.30932 8.17703 6.20363C8.35551 6.64994 8.24148 6.91772 7.79032 7.09624C7.0169 7.4037 6.24347 7.72107 5.47005 8.01861C5.32627 8.07316 5.29157 8.14754 5.30644 8.29135C5.50971 10.6816 7.29454 12.8437 9.60985 13.4784C9.97177 13.5776 10.3486 13.6272 10.7154 13.6966C10.8543 13.7263 10.9336 13.6817 10.9881 13.5329C11.2856 12.7544 11.6029 11.9858 11.9103 11.2072C12.0888 10.7559 12.3515 10.6419 12.8027 10.8204C14.7164 11.5841 16.6302 12.3527 18.5488 13.1114C18.762 13.1957 18.9157 13.3346 19 13.5429C19 13.7263 19 13.9148 19 14.0983C18.9901 14.1528 18.9703 14.2074 18.9653 14.2619C18.7075 16.8654 16.4467 18.9481 13.829 18.9977C12.7977 19.0175 11.7764 18.9084 10.7749 18.6902C5.78735 17.5943 1.87561 13.9049 0.502292 8.99552C0.115581 7.61693 -0.0876907 6.21355 0.0362553 4.78042C0.214738 2.67287 1.76158 0.813267 3.79926 0.228112C4.16118 0.123974 4.53302 0.0743841 4.90486 0C5.07838 0.00991788 5.26182 0.00991849 5.45022 0.00991849ZM6.97723 6.21851C6.95245 6.14909 6.93261 6.0995 6.91278 6.04991C6.30793 4.53743 5.70307 3.02495 5.09821 1.50752C4.94452 1.12072 4.94452 1.12568 4.53798 1.1951C2.77298 1.50256 1.32529 3.04975 1.14185 4.82505C1.05757 5.63336 1.12698 6.43175 1.25588 7.22518C1.77646 10.5278 3.36793 13.2057 5.98567 15.2686C7.81015 16.7067 9.89245 17.5398 12.1978 17.8125C12.9465 17.9018 13.7001 17.9563 14.4537 17.8274C16.1839 17.5249 17.6366 16.0075 17.8448 14.2718C17.8647 14.1131 17.83 14.0338 17.6713 13.9743C16.1046 13.3544 14.5379 12.7296 12.9762 12.1048C12.9167 12.08 12.8572 12.0552 12.7878 12.0304C12.7581 12.1048 12.7382 12.1544 12.7184 12.204C12.4209 12.9428 12.1284 13.6817 11.831 14.4206C11.712 14.7132 11.5335 14.8421 11.241 14.8371C10.2643 14.8272 9.31734 14.6586 8.43484 14.2371C5.73777 12.9478 4.30496 10.8055 4.1711 7.80537C4.15622 7.47808 4.28017 7.29956 4.5826 7.17559C4.98914 7.01194 5.39568 6.85326 5.80223 6.68961C6.19389 6.53588 6.58061 6.38216 6.97723 6.21851Z" fill="#1A1A1A"/>
</svg>
