<svg width="50" height="51" viewBox="0 0 50 51" fill="none" xmlns="http://www.w3.org/2000/svg">
<path d="M11.4715 50.0564C10.492 49.8991 9.50032 49.7661 8.53288 49.5605C7.39612 49.3066 6.30774 48.9317 5.35239 48.2303C3.73191 47.0089 3.70773 45.2191 5.38867 44.0824C6.19891 43.5261 7.14217 43.1633 8.04915 42.6917C8.00078 42.6312 7.90403 42.5103 7.7831 42.3772C6.00542 40.4423 4.39703 38.3744 3.09098 36.0888C1.86958 33.9483 0.974684 31.6748 0.684449 29.2199C-0.101602 22.6897 4.14308 16.9575 10.3589 15.7361C16.9134 14.4422 23.1897 18.6264 24.5683 25.1567C25.1609 27.9381 24.7255 30.6348 23.6734 33.2349C23.226 34.3353 22.6576 35.3753 22.1134 36.4395C21.8474 36.9474 21.4483 37.0805 21.0492 36.8628C20.6623 36.6451 20.5897 36.2339 20.8678 35.726C20.9283 35.6172 21.0009 35.5084 21.0492 35.3874C21.5813 34.2144 22.1981 33.0776 22.6213 31.8804C23.6855 28.833 23.6976 25.8097 22.2344 22.8469C20.239 18.7715 15.5227 16.3408 11.0361 17.1027C6.57379 17.8645 3.19981 21.0692 2.25655 25.4953C1.76074 27.8171 2.11144 30.0665 2.90958 32.2674C3.9254 35.0851 5.58216 37.5279 7.46868 39.8256C9.02869 41.7363 10.7822 43.4535 12.7171 45.1103C13.5273 44.3605 14.3859 43.647 15.1357 42.8489C16.4901 41.3856 17.7841 39.874 19.0902 38.3744C19.4529 37.9512 19.8762 37.8544 20.2148 38.1326C20.5534 38.4107 20.5655 38.8461 20.2027 39.2814C19.3562 40.3093 18.4976 41.3372 17.639 42.3531C17.5301 42.4861 17.4092 42.6191 17.3004 42.7521C18.0018 43.0545 18.7032 43.3205 19.3683 43.6712C19.7674 43.8768 20.1302 44.1549 20.4446 44.4693C21.533 45.5214 21.5088 46.9121 20.3962 47.9401C19.3925 48.8712 18.1469 49.2945 16.8529 49.5847C15.8734 49.8024 14.8576 49.9233 13.8659 50.0805C13.0799 50.0564 12.2817 50.0564 11.4715 50.0564ZM13.0073 48.6173C13.6241 48.5568 14.519 48.5326 15.4138 48.3875C16.7199 48.1819 18.0018 47.8796 19.1143 47.0935C20.0576 46.4284 20.0939 45.7391 19.0902 45.1586C18.2678 44.687 17.3246 44.421 16.4418 44.0582C16.1878 43.9493 16.0064 44.034 15.8008 44.2275C14.9906 44.9652 14.1804 45.6908 13.3459 46.4042C12.8622 46.8154 12.5599 46.8154 12.0762 46.3921C11.278 45.7149 10.492 45.0256 9.74219 44.3C9.45195 44.0219 9.19799 43.9614 8.84729 44.0824C8.3031 44.2638 7.73473 44.4089 7.21472 44.6507C6.75519 44.8684 6.31983 45.1587 5.94495 45.4973C5.48541 45.9084 5.48541 46.2833 5.92076 46.6945C6.211 46.9847 6.5617 47.2387 6.92449 47.4201C8.72636 48.3633 10.7096 48.5568 13.0073 48.6173Z" fill="#1072D8"/>
<path d="M50.0002 10.5606C49.8672 11.3466 49.7826 12.1568 49.5891 12.9187C48.9723 15.3252 47.7388 17.4294 46.2393 19.3764C45.6467 20.1383 45.0179 20.8639 44.3528 21.662C44.5221 21.7346 44.6914 21.7709 44.8244 21.8555C45.417 22.2062 46.07 22.4723 46.5779 22.9318C47.497 23.7541 47.4607 24.903 46.59 25.7737C45.9007 26.463 45.0058 26.8258 44.0867 27.0556C41.402 27.7207 38.7416 27.7086 36.1053 26.7895C35.3797 26.5355 34.7267 26.1727 34.2308 25.5681C33.5778 24.7699 33.5778 23.7783 34.3034 23.0285C34.6057 22.7141 34.9927 22.4481 35.3676 22.2183C35.7546 21.9885 36.1778 21.8434 36.6495 21.6378C36.5285 21.4927 36.4076 21.3476 36.2867 21.2146C34.4001 19.0983 32.7676 16.8248 31.7759 14.1401C31.3043 12.8824 31.0624 11.5764 31.0141 10.234C31.002 9.73822 31.268 9.41171 31.6792 9.38752C32.1024 9.36334 32.4169 9.6052 32.4411 10.0768C32.5741 13.7169 34.3518 16.6313 36.589 19.316C37.7741 20.7309 39.1165 22.0127 40.4588 23.4276C41.5593 22.3271 42.5993 21.3476 43.5667 20.2955C45.3686 18.3243 46.9286 16.1838 47.8477 13.6443C48.8272 10.9475 48.8393 8.29915 47.2672 5.77169C44.5946 1.46654 38.3304 0.777236 34.8355 4.44145C34.2429 5.05819 33.8197 5.83215 33.3118 6.53355C33.2271 6.65449 33.1787 6.78751 33.1062 6.92053C32.8522 7.35588 32.4894 7.501 32.1024 7.30751C31.7397 7.12612 31.5945 6.72704 31.8243 6.26751C32.1145 5.67494 32.4048 5.07029 32.7918 4.55028C35.2467 1.33352 38.5239 -0.00881428 42.4783 0.837703C46.4086 1.68422 48.8151 4.26005 49.7826 8.15403C49.8914 8.61357 49.9277 9.09729 50.0002 9.56892C50.0002 9.91962 50.0002 10.2461 50.0002 10.5606ZM40.7127 26.0881C41.2327 26.0397 41.9946 26.0155 42.7323 25.8946C43.6635 25.7374 44.5946 25.4955 45.3686 24.9151C45.9007 24.5281 45.9249 24.1532 45.3807 23.8267C44.776 23.476 44.1109 23.2341 43.4579 22.9923C43.3007 22.9318 43.0225 23.0165 42.8774 23.1253C42.3332 23.5727 41.8253 24.0686 41.2932 24.5281C40.5918 25.1207 40.3983 25.1327 39.7211 24.5402C39.1769 24.0686 38.6569 23.5606 38.1006 23.1011C37.9797 22.9923 37.7378 22.9197 37.6048 22.956C37.0243 23.1374 36.4439 23.3309 35.8997 23.5969C35.0048 24.0444 35.0048 24.516 35.8392 25.0481C35.9601 25.1206 36.0932 25.1932 36.2141 25.2537C37.5564 25.9188 39.0197 26.0276 40.7127 26.0881Z" fill="#1072D8"/>
<path d="M17.9654 27.5755C17.9775 30.4536 15.6677 32.8239 12.8016 32.8602C9.89929 32.8965 7.49276 30.5988 7.44439 27.7085C7.4323 27.2369 7.52904 26.7532 7.61369 26.2815C7.71044 25.8099 8.07323 25.5559 8.4723 25.6406C8.89556 25.7252 9.11324 26.1122 9.0044 26.6201C8.6537 28.2769 9.11324 29.6434 10.4556 30.6834C12.0519 31.9169 14.3737 31.5783 15.704 29.9215C16.9133 28.4099 16.6956 26.0276 15.2323 24.7699C13.8779 23.609 12.1486 23.4638 10.6249 24.395C10.4798 24.4917 10.3225 24.6006 10.1532 24.6369C9.77836 24.7215 9.48812 24.6006 9.31882 24.2378C9.13742 23.8508 9.29463 23.5364 9.62115 23.3187C11.0602 22.3271 12.6323 22.0489 14.3012 22.581C16.5142 23.2945 17.9533 25.2899 17.9654 27.5755Z" fill="#1072D8"/>
<path d="M44.7029 10.1128C44.7029 12.4225 42.7801 14.3332 40.4945 14.3212C38.1968 14.3091 36.2861 12.3984 36.2861 10.1007C36.2861 7.79088 38.1968 5.89226 40.5066 5.90435C42.8164 5.90435 44.7029 7.80297 44.7029 10.1128ZM40.4945 7.34343C38.9708 7.34343 37.7373 8.57693 37.7373 10.1007C37.7373 11.6123 38.995 12.87 40.4945 12.87C42.0062 12.87 43.2518 11.6123 43.2518 10.1007C43.2518 8.57693 42.0183 7.34343 40.4945 7.34343Z" fill="#1072D8"/>
<path d="M35.2466 34.4686C35.0893 34.4565 34.8112 34.5049 34.654 34.3961C34.4242 34.2389 34.1945 33.997 34.134 33.7431C34.0614 33.4165 34.2791 33.1021 34.654 33.0537C35.0531 33.0054 35.4521 33.0054 35.8512 33.0296C36.2624 33.0537 36.4921 33.3198 36.4921 33.731C36.4921 34.1421 36.2503 34.3719 35.8391 34.4324C35.6577 34.4686 35.4884 34.4565 35.2466 34.4686Z" fill="#1072D8"/>
<path d="M31.413 34.4688C31.2558 34.4567 31.026 34.4567 30.8204 34.4083C30.4576 34.3236 30.2883 34.0697 30.3004 33.7069C30.3125 33.3562 30.4939 33.1022 30.8325 33.0659C31.2195 33.0176 31.6306 33.0176 32.0297 33.0418C32.4409 33.066 32.6707 33.332 32.6586 33.7432C32.6586 34.1543 32.4288 34.3962 32.0176 34.4446C31.8241 34.4567 31.6548 34.4567 31.413 34.4688Z" fill="#1072D8"/>
<path d="M39.0794 34.4807C38.9222 34.4687 38.6925 34.4687 38.4748 34.4203C38.112 34.3356 37.8822 34.0575 37.9548 33.731C38.0152 33.4891 38.2571 33.1626 38.4748 33.09C38.8376 32.9812 39.2608 33.0296 39.6599 33.0417C40.0711 33.0659 40.3129 33.344 40.3129 33.7431C40.3129 34.1421 40.0832 34.3961 39.6599 34.4445C39.4906 34.4566 39.3213 34.4566 39.0794 34.4807Z" fill="#1072D8"/>
<path d="M42.962 34.4805C42.7564 34.4684 42.5508 34.4684 42.3452 34.4321C41.9825 34.3716 41.789 34.1298 41.7769 33.767C41.7648 33.38 41.9704 33.1139 42.3573 33.0656C42.7322 33.0293 43.1192 33.0293 43.5062 33.0535C43.9174 33.0898 44.1471 33.3558 44.135 33.7549C44.135 34.166 43.8932 34.4079 43.482 34.4563C43.3127 34.4805 43.1313 34.4563 42.9499 34.4563C42.962 34.4563 42.962 34.4684 42.962 34.4805Z" fill="#1072D8"/>
<path d="M35.8635 46.7791C35.6821 46.7791 35.5128 46.7912 35.3314 46.7791C34.9444 46.7428 34.7147 46.501 34.6905 46.1261C34.6663 45.7512 34.8598 45.4489 35.2468 45.4005C35.6579 45.34 36.0812 45.34 36.4924 45.3884C36.8673 45.4368 37.0849 45.7149 37.0728 46.1019C37.0607 46.5131 36.8068 46.7428 36.4077 46.7912C36.2142 46.7912 36.0449 46.7791 35.8635 46.7791Z" fill="#1072D8"/>
<path d="M39.7332 46.7671C39.5397 46.7671 39.3462 46.7913 39.1527 46.7671C38.7778 46.7066 38.536 46.4769 38.5239 46.0899C38.5118 45.6787 38.7416 45.4006 39.1406 45.3522C39.5155 45.3038 39.9146 45.3159 40.2895 45.3522C40.6765 45.3885 40.8941 45.6666 40.9062 46.0415C40.9062 46.4164 40.6886 46.6825 40.3137 46.755C40.1323 46.7913 39.9267 46.7792 39.7332 46.7913C39.7332 46.7792 39.7332 46.7671 39.7332 46.7671Z" fill="#1072D8"/>
<path d="M26.2373 26.4511C26.2494 25.8586 27.0475 24.9032 27.4829 24.8911C27.7006 24.8911 28.015 25.012 28.1238 25.1813C28.2448 25.3748 28.2689 25.7376 28.1601 25.919C27.9545 26.2697 27.6643 26.5962 27.3378 26.8381C27.1685 26.9711 26.8057 26.9711 26.588 26.8865C26.4187 26.826 26.3099 26.5479 26.2373 26.4511Z" fill="#1072D8"/>
<path d="M48.2471 41.7728C48.3317 41.4947 48.4164 41.0835 48.5736 40.7086C48.7066 40.3821 49.021 40.2491 49.3717 40.3458C49.7103 40.4426 49.9522 40.6844 49.8917 41.0593C49.8313 41.4826 49.7224 41.9059 49.5652 42.3049C49.4322 42.6435 49.1057 42.7403 48.755 42.6435C48.4043 42.5226 48.2471 42.2686 48.2471 41.7728Z" fill="#1072D8"/>
<path d="M30.5785 25.0602C29.8166 25.1448 29.478 24.9513 29.4296 24.4797C29.3812 23.9718 29.6957 23.7178 30.4696 23.6453C30.7115 23.6211 30.9533 23.6211 31.1831 23.6574C31.5822 23.7178 31.812 23.9839 31.7878 24.395C31.7636 24.7941 31.5217 25.036 31.1106 25.0602C30.9413 25.0723 30.7599 25.0602 30.5785 25.0602Z" fill="#1072D8"/>
<path d="M26.8539 29.5833C26.8539 29.7406 26.8539 29.8615 26.8539 29.9703C26.8297 30.3573 26.6241 30.5992 26.2492 30.6596C25.8743 30.708 25.5599 30.5387 25.4874 30.1517C25.4027 29.7285 25.3785 29.2931 25.3906 28.8699C25.4027 28.5312 25.6688 28.3378 26.0074 28.3015C26.3702 28.2652 26.6483 28.4224 26.745 28.7852C26.8055 29.0513 26.8176 29.3415 26.8539 29.5833Z" fill="#1072D8"/>
<path d="M28.958 32.9331C28.9459 33.5498 28.4259 33.9126 27.9785 33.6586C27.5915 33.441 27.2408 33.1507 26.9385 32.8363C26.6966 32.5824 26.745 32.2317 26.9747 31.9656C27.1924 31.7117 27.5068 31.6149 27.7971 31.8084C28.1478 32.0261 28.4743 32.2921 28.7766 32.5703C28.8975 32.667 28.9338 32.8605 28.958 32.9331Z" fill="#1072D8"/>
<path d="M43.2887 46.7549C42.7082 46.767 42.3817 46.513 42.3575 46.0777C42.3212 45.6181 42.6115 45.34 43.1799 45.3037C43.4459 45.2795 43.724 45.2432 43.9901 45.2553C44.4254 45.2674 44.6915 45.5456 44.7157 45.9325C44.7278 46.3316 44.4859 46.6098 44.0626 46.6702C43.7845 46.7186 43.5185 46.7428 43.2887 46.7549Z" fill="#1072D8"/>
<path d="M24.3023 46.8761C24.133 46.8519 23.9033 46.8519 23.6856 46.7915C23.3349 46.6947 23.1656 46.4166 23.1898 46.0659C23.226 45.7152 23.4316 45.4612 23.8065 45.437C24.1572 45.4128 24.5079 45.4128 24.8586 45.4249C25.2698 45.437 25.5237 45.6668 25.56 46.078C25.5963 46.4891 25.3786 46.7552 24.9675 46.8277C24.774 46.8519 24.5684 46.8519 24.3023 46.8761Z" fill="#1072D8"/>
<path d="M47.6787 35.0005C47.6666 35.581 47.1345 35.9317 46.687 35.7019C46.3363 35.5205 45.9977 35.2908 45.6954 35.0368C45.4294 34.8191 45.3447 34.4805 45.5624 34.2266C45.7196 34.0331 46.0945 33.7912 46.2517 33.8638C46.7354 34.0814 47.1587 34.4201 47.594 34.7345C47.6666 34.7828 47.6666 34.9521 47.6787 35.0005Z" fill="#1072D8"/>
<path d="M32.0175 46.7914C31.8361 46.7914 31.6668 46.8034 31.4854 46.7914C31.0984 46.743 30.8807 46.5132 30.8565 46.1262C30.8323 45.7393 31.0258 45.4611 31.4128 45.4127C31.824 45.3644 32.2472 45.3644 32.6463 45.4127C33.0333 45.4611 33.2268 45.7393 33.2026 46.1262C33.1784 46.5132 32.9607 46.743 32.5737 46.7914C32.4044 46.8034 32.2109 46.7793 32.0175 46.7914C32.0175 46.7793 32.0175 46.7793 32.0175 46.7914Z" fill="#1072D8"/>
<path d="M28.1474 46.8397C27.3735 46.8397 27.0107 46.5979 27.0228 46.1021C27.0228 45.6062 27.3735 45.3886 28.1595 45.3765C28.3651 45.3765 28.5707 45.3765 28.7884 45.4006C29.1874 45.449 29.4051 45.703 29.4051 46.0779C29.4172 46.4769 29.1874 46.743 28.7763 46.7914C28.5707 46.8276 28.353 46.8276 28.1474 46.8397Z" fill="#1072D8"/>
<path d="M49.8917 38.2414C49.6862 38.4469 49.5289 38.7735 49.2992 38.8218C49.0694 38.8823 48.6462 38.7614 48.5252 38.58C48.2834 38.2172 48.1141 37.7697 48.0778 37.3344C48.0536 37.1167 48.3075 36.7539 48.5252 36.6572C48.7187 36.5725 49.1541 36.6692 49.275 36.8386C49.5169 37.2255 49.6499 37.6972 49.8917 38.2414Z" fill="#1072D8"/>
<path d="M46.529 45.6547C46.4201 45.5701 46.142 45.4492 46.0452 45.2315C45.9606 45.038 45.9848 44.6873 46.1057 44.5301C46.3838 44.2036 46.7224 43.9133 47.0973 43.7199C47.2787 43.6231 47.6536 43.6836 47.835 43.8166C47.9922 43.9375 48.089 44.2519 48.0769 44.4817C48.0648 44.8687 47.0731 45.6547 46.529 45.6547Z" fill="#1072D8"/>
</svg>
