<svg width="51" height="51" viewBox="0 0 51 51" fill="none" xmlns="http://www.w3.org/2000/svg">
<path d="M50.4869 25.0462C50.0786 26.205 49.2359 26.6001 48.0507 26.5869C42.8755 26.5606 37.7136 26.5737 32.5384 26.5737C31.3006 26.5737 30.5236 26.0075 30.3261 24.9804C30.2866 24.7433 30.2866 24.4931 30.2866 24.2429C30.2866 17.0003 30.2998 9.77092 30.2734 2.52832C30.2734 1.33 30.6158 0.460892 31.7615 0C36.2255 0 40.7028 0 45.1668 0C45.8516 0.671586 46.5495 1.33001 47.2343 2.01476C48.3272 3.10773 49.407 4.22704 50.5 5.32001C50.4868 11.9042 50.4869 18.4752 50.4869 25.0462ZM49.012 6.32081C48.0639 6.32081 47.1948 6.32081 46.3257 6.32081C44.943 6.32081 44.1792 5.54387 44.1792 4.14803C44.1792 3.72664 44.1792 3.29209 44.1792 2.8707C44.1792 2.42298 44.1792 1.96209 44.1792 1.48803C43.9422 1.48803 43.7842 1.48803 43.613 1.48803C39.939 1.48803 36.2519 1.48803 32.5779 1.48803C31.8405 1.48803 31.7615 1.56703 31.7615 2.31763C31.7615 9.63923 31.7615 16.9608 31.7615 24.2956C31.7615 25.0199 31.8536 25.112 32.5911 25.112C37.7794 25.112 42.9677 25.112 48.1561 25.112C48.9198 25.112 48.9988 25.0199 48.9988 24.2693C48.9988 18.4884 48.9988 12.7075 48.9988 6.92655C49.012 6.7422 49.012 6.55784 49.012 6.32081ZM47.7347 4.84595C47.0367 4.14803 46.3257 3.45011 45.6541 2.77852C45.6541 3.23941 45.6146 3.80565 45.6804 4.34555C45.6936 4.52991 45.9306 4.80645 46.0886 4.81962C46.668 4.87229 47.2474 4.84595 47.7347 4.84595Z" fill="#1072D8"/>
<path d="M14.9066 0.0131836C16.3814 1.4617 17.8168 2.94973 19.3311 4.35874C20.0159 4.99082 20.2793 5.66241 20.2529 6.59736C20.1871 8.7833 20.2266 10.9692 20.2266 13.1552C20.2266 13.3132 20.2397 13.4844 20.1871 13.6424C20.0949 13.998 19.8315 14.2087 19.4628 14.1955C19.0809 14.1823 18.8176 13.9585 18.7517 13.5634C18.7254 13.4186 18.7386 13.2737 18.7386 13.1157C18.7386 11.0483 18.7386 8.98083 18.7386 6.9134C18.7386 6.74221 18.7386 6.55785 18.7386 6.33399C17.8036 6.33399 16.9213 6.33399 16.039 6.33399C14.6695 6.33399 13.9058 5.55706 13.9058 4.20072C13.9058 3.31844 13.9058 2.43616 13.9058 1.52754C13.6951 1.51438 13.5371 1.50121 13.379 1.50121C9.67874 1.50121 5.9916 1.50121 2.29129 1.50121C1.5802 1.50121 1.48802 1.59338 1.48802 2.29131C1.48802 9.63924 1.48802 16.974 1.48802 24.322C1.48802 25.0199 1.59337 25.1252 2.27812 25.1252C7.50596 25.1252 12.7206 25.1252 17.9485 25.1252C18.6332 25.1252 18.7254 25.0199 18.7254 24.3088C18.7254 21.9648 18.7254 19.6077 18.7254 17.2637C18.7254 17.1189 18.7122 16.9608 18.7386 16.816C18.8044 16.4473 19.0283 16.2234 19.397 16.1971C19.792 16.1576 20.0554 16.3683 20.1739 16.7502C20.2134 16.9082 20.2134 17.0794 20.2134 17.2374C20.2134 19.634 20.2134 22.0307 20.2134 24.4273C20.2134 25.7968 19.4628 26.6001 18.0933 26.6001C12.7733 26.6133 7.45328 26.6133 2.13327 26.6001C0.763762 26.6001 0.0131692 25.81 0.0131692 24.4405C0.0131692 17.132 0.0263367 9.8236 0 2.51517C0 1.33002 0.368712 0.487246 1.48802 0.0395219C5.96526 0.0131852 10.4293 0.0131836 14.9066 0.0131836ZM17.5007 4.84597C16.7896 4.14805 16.0917 3.43695 15.3938 2.7522C15.3938 3.23943 15.3938 3.7925 15.3938 4.34557C15.3938 4.68795 15.5913 4.84597 15.9205 4.84597C16.4604 4.84597 17.0003 4.84597 17.5007 4.84597Z" fill="#1072D8"/>
<path d="M25.2438 39.7818C24.2299 39.8344 23.2027 39.7686 22.2019 39.9398C19.9765 40.3217 18.3831 42.2574 18.3436 44.5224C18.3173 45.7997 18.3436 47.0902 18.3304 48.3675C18.3304 48.8416 18.528 49.0128 18.9888 48.9996C20.4374 48.9865 21.8859 48.9996 23.3212 48.9996C23.9402 48.9996 24.2694 49.2762 24.2694 49.7502C24.2562 50.2111 23.9401 50.4745 23.3476 50.4745C21.8464 50.4745 20.3584 50.4876 18.8572 50.4745C17.6588 50.4613 16.8556 49.6712 16.8556 48.4597C16.8424 47.1429 16.8424 45.826 16.8556 44.5224C16.8951 41.1513 19.6341 38.3991 23.0184 38.3596C24.4932 38.3333 25.9812 38.3333 27.4561 38.3596C30.8404 38.4123 33.5794 41.1381 33.6321 44.5224C33.6452 45.8524 33.6452 47.1824 33.6321 48.5124C33.6189 49.6844 32.8156 50.4876 31.6436 50.4876C30.1556 50.5008 28.6544 50.4876 27.1532 50.4876C26.587 50.4876 26.2446 50.1848 26.2446 49.737C26.2578 49.2893 26.6002 49.0128 27.1664 49.0128C28.6017 49.0128 30.0239 49.0128 31.4593 49.0128C32.0387 49.0128 32.144 48.9074 32.1572 48.328C32.1572 47.1165 32.1704 45.8919 32.1572 44.6804C32.1309 41.9282 30.0766 39.874 27.3112 39.8345C26.6265 39.8213 25.9286 39.8345 25.2438 39.8345C25.2438 39.8081 25.2438 39.7949 25.2438 39.7818Z" fill="#1072D8"/>
<path d="M25.3088 26.4682C28.2059 26.534 30.5235 28.9175 30.4445 31.7487C30.3655 34.6325 28.0084 36.9238 25.1903 36.858C22.3196 36.8053 19.9757 34.3955 20.0547 31.5775C20.1337 28.7068 22.504 26.4023 25.3088 26.4682ZM28.9696 31.6433C28.9565 29.6154 27.2841 27.9562 25.2562 27.943C23.2151 27.943 21.5164 29.6417 21.5295 31.6828C21.5427 33.7239 23.2678 35.4226 25.2957 35.3831C27.3368 35.3436 28.9828 33.6581 28.9696 31.6433Z" fill="#1072D8"/>
<path d="M9.56012 10.627C10.1922 9.98172 10.6926 9.45498 11.2062 8.94142C12.1938 7.96696 13.5501 7.94062 14.4587 8.84924C15.3542 9.75786 15.3147 11.0879 14.3534 12.0623C13.3394 13.0894 12.3123 14.1166 11.2852 15.1305C10.2712 16.1313 8.98071 16.1313 7.96675 15.1305C7.29516 14.4721 6.63674 13.8137 5.97833 13.1421C5.03021 12.1808 5.00387 10.8245 5.88615 9.92904C6.78159 9.02043 8.13794 9.04676 9.09923 10.0081C9.25725 10.1661 9.37576 10.3768 9.56012 10.627ZM13.7081 10.3636C13.5106 10.1397 13.3789 9.8237 13.1682 9.77102C12.918 9.70518 12.523 9.77102 12.3386 9.92904C11.6275 10.5611 10.9823 11.259 10.2975 11.9306C9.78398 12.4442 9.4416 12.431 8.91487 11.9175C8.62516 11.6278 8.33546 11.3381 8.04576 11.0484C7.65071 10.6796 7.22932 10.6665 6.92645 10.9957C6.63675 11.3117 6.64991 11.7199 7.00546 12.0887C7.67704 12.7734 8.34863 13.445 9.02022 14.1034C9.4416 14.5116 9.79715 14.5116 10.2185 14.1034C11.2588 13.0763 12.286 12.0491 13.3131 11.0088C13.458 10.8508 13.5501 10.627 13.7081 10.3636Z" fill="#1072D8"/>
<path d="M10.0868 19.7654C8.42762 19.7654 6.76841 19.7654 5.10919 19.7654C4.92484 19.7654 4.74048 19.7654 4.56929 19.739C4.20058 19.6732 3.98989 19.423 3.96355 19.0675C3.95038 18.6987 4.13473 18.4354 4.50345 18.3432C4.67464 18.3037 4.85899 18.2905 5.04335 18.2905C8.42762 18.2905 11.7987 18.2905 15.183 18.2905C15.341 18.2905 15.5122 18.2905 15.6702 18.33C16.0653 18.4222 16.276 18.6856 16.2496 19.0806C16.2233 19.4625 15.9994 19.7127 15.6044 19.7654C15.42 19.7786 15.2488 19.7786 15.0645 19.7786C13.4053 19.7654 11.746 19.7654 10.0868 19.7654Z" fill="#1072D8"/>
<path d="M10.0735 22.9129C8.38795 22.9129 6.68923 22.9129 5.00368 22.9129C4.76665 22.9129 4.47695 22.8998 4.30576 22.7681C4.13457 22.6232 3.97655 22.3072 4.00289 22.1097C4.04239 21.8858 4.27942 21.6619 4.49012 21.5171C4.63497 21.4249 4.872 21.4512 5.06952 21.4512C8.42745 21.4512 11.7986 21.4512 15.1565 21.4512C15.2487 21.4512 15.354 21.4512 15.4462 21.4512C15.9334 21.4776 16.2626 21.7936 16.2495 22.2018C16.2363 22.6232 15.9202 22.9129 15.4198 22.9261C13.6421 22.9129 11.8644 22.9129 10.0735 22.9129Z" fill="#1072D8"/>
<path d="M37.3456 11.7856C36.911 11.3905 36.5423 11.0877 36.2131 10.7453C35.2913 9.79717 35.2781 8.45399 36.1736 7.57171C37.0559 6.68943 38.399 6.7026 39.3471 7.62439C39.6895 7.9536 39.9924 8.32231 40.4006 8.7832C40.7825 8.34865 41.0854 7.97993 41.4146 7.63756C42.3495 6.7026 43.6927 6.67627 44.5882 7.55854C45.4836 8.44082 45.4836 9.77083 44.575 10.7321C44.2458 11.0745 43.8771 11.3774 43.4952 11.7461C43.9297 12.1938 44.3379 12.5757 44.6935 12.9971C45.3124 13.7213 45.4441 14.5641 45.0227 15.4332C44.6145 16.276 43.8902 16.6974 42.9553 16.671C42.3759 16.6579 41.8623 16.4208 41.4672 16.0126C41.1249 15.6571 40.8088 15.2884 40.3874 14.8275C39.9924 15.262 39.7027 15.6439 39.3603 15.9731C38.4122 16.9081 37.0822 16.9212 36.1867 16.0521C35.2781 15.1567 35.3045 13.8003 36.2394 12.8391C36.5555 12.4967 36.911 12.1938 37.3456 11.7856ZM43.8771 9.0729C43.6795 8.84904 43.5347 8.55934 43.324 8.4935C43.087 8.42766 42.7182 8.4935 42.5339 8.63835C42.073 9.00706 41.6911 9.46796 41.2697 9.87617C40.7035 10.4292 40.1109 10.4292 39.5315 9.87617C39.1365 9.49429 38.7677 9.11241 38.3859 8.73053C37.9645 8.32231 37.5431 8.29597 37.227 8.62518C36.9242 8.94122 36.9637 9.36261 37.3456 9.75766C37.7011 10.1264 38.0698 10.4819 38.4254 10.8375C39.0706 11.4959 39.0706 12.0753 38.4385 12.7205C38.0566 13.1024 37.6616 13.4843 37.2929 13.8794C36.9505 14.2481 36.9373 14.6826 37.2534 14.9723C37.5694 15.2752 37.9776 15.2489 38.3463 14.8933C38.7546 14.4983 39.1496 14.0769 39.571 13.6818C40.1241 13.1551 40.7167 13.1551 41.2697 13.6818C41.6779 14.0637 42.0598 14.4719 42.4549 14.867C42.8499 15.2489 43.2581 15.2752 43.5874 14.9592C43.9034 14.6431 43.8771 14.2217 43.5083 13.8267C43.1528 13.458 42.7841 13.1024 42.4285 12.7469C41.757 12.0621 41.757 11.5091 42.4154 10.8375C42.7709 10.4688 43.1528 10.1264 43.4952 9.75766C43.6137 9.58647 43.7059 9.34944 43.8771 9.0729Z" fill="#1072D8"/>
<path d="M40.387 19.7658C38.6751 19.7658 36.9764 19.7658 35.2645 19.7658C35.067 19.7658 34.8168 19.7921 34.6983 19.6868C34.5007 19.5024 34.2637 19.2259 34.2769 18.9889C34.2901 18.765 34.5534 18.5148 34.7641 18.3436C34.8958 18.2383 35.146 18.2778 35.3435 18.2778C38.7015 18.2778 42.0725 18.2778 45.4305 18.2778C45.4832 18.2778 45.5227 18.2778 45.5753 18.2778C46.1811 18.2909 46.5366 18.5675 46.5235 19.0284C46.5103 19.4761 46.1811 19.7394 45.5885 19.7526C43.8634 19.7658 42.1252 19.7658 40.387 19.7658Z" fill="#1072D8"/>
<path d="M40.3869 22.9129C38.675 22.9129 36.9763 22.9129 35.2644 22.9129C35.0274 22.9129 34.7377 22.8997 34.5665 22.7549C34.3953 22.61 34.2373 22.294 34.2636 22.0965C34.3031 21.8726 34.5402 21.6487 34.7509 21.5039C34.8957 21.4117 35.1327 21.4381 35.3303 21.4381C38.6882 21.4381 42.0593 21.4381 45.4172 21.4381C45.5094 21.4381 45.6147 21.4381 45.7069 21.4381C46.1942 21.4776 46.5234 21.7673 46.5102 22.1886C46.497 22.61 46.181 22.8997 45.6806 22.9129C43.9292 22.9129 42.1646 22.9129 40.3869 22.9129Z" fill="#1072D8"/>
</svg>
