<svg width="41" height="40" viewBox="0 0 41 40" fill="none" xmlns="http://www.w3.org/2000/svg">
<path d="M21.7436 0C22.492 0.107386 23.2403 0.174501 23.9619 0.308734C30.149 1.5034 34.7592 4.88607 37.7793 10.4299C39.7036 13.9602 40.3316 17.7724 39.9307 21.7591C39.1022 29.9339 32.9151 36.9274 24.9508 38.753C21.4497 39.5584 17.9753 39.451 14.5677 38.31C13.8594 38.0684 13.218 38.2697 12.5499 38.3906C9.56991 38.9006 6.57659 39.4376 3.59663 39.9745C3.16901 40.055 2.79484 39.9476 2.51422 39.6121C2.20687 39.2362 2.22024 38.8201 2.40732 38.404C3.28928 36.3368 4.17124 34.2696 5.06656 32.2158C5.17347 31.9608 5.1601 31.7997 4.99975 31.585C3.42291 29.5446 2.30041 27.2761 1.63226 24.7794C0.964107 22.296 0.790388 19.7591 1.1111 17.1952C1.57881 13.5307 2.9552 10.242 5.26701 7.3828C8.36723 3.55717 12.3361 1.18125 17.1735 0.322158C17.9352 0.187925 18.7102 0.107387 19.4719 0.0134241C20.247 8.19091e-07 20.9953 0 21.7436 0ZM5.12001 37.4912C5.22692 37.4912 5.3071 37.5046 5.38727 37.4912C7.80599 37.0616 10.2381 36.659 12.6568 36.2026C13.5922 36.0281 14.4608 36.0281 15.3962 36.3234C18.8439 37.4509 22.3316 37.4375 25.7793 36.3099C34.3049 33.5313 39.3027 24.9673 37.5922 16.1213C35.7882 6.8056 26.5543 0.5772 17.2537 2.46988C11.6011 3.62428 7.43182 6.83244 4.86612 12.0138C2.78148 16.2153 2.55431 20.6181 3.98416 25.1015C4.65231 27.209 5.72135 29.1017 7.12447 30.793C7.52536 31.2762 7.59218 31.7595 7.32492 32.3367C6.77703 33.5448 6.26924 34.7663 5.74808 35.9878C5.54763 36.4844 5.34719 36.9677 5.12001 37.4912Z" fill="#1072D8"/>
<path d="M20.5224 20.9092C22.7136 20.9092 24.9049 20.9092 27.0827 20.9092C27.9162 20.9092 28.4405 21.8354 28.1447 22.7617C27.9834 23.2591 27.6876 23.5507 27.2574 23.6193C27.1633 23.6365 27.0692 23.6365 26.9886 23.6365C22.6598 23.6365 18.3446 23.6365 14.0158 23.6365C13.5184 23.6365 13.1151 23.4478 12.8866 22.8646C12.5371 21.9555 13.0345 20.9263 13.868 20.9263C15.2526 20.9092 16.6238 20.9263 18.0085 20.9263C18.8554 20.9092 19.6889 20.9092 20.5224 20.9092Z" fill="#1072D8"/>
<path d="M20.4825 18.1743C19.514 18.1743 18.5594 18.1913 17.5909 18.1743C16.7607 18.1573 16.2488 17.3401 16.4563 16.4378C16.5809 15.8759 16.9821 15.4674 17.5078 15.4674C19.5002 15.4503 21.4925 15.4503 23.4987 15.4674C24.1351 15.4674 24.6055 16.1143 24.5917 16.8293C24.5778 17.5784 24.1074 18.1573 23.4295 18.1743C22.4333 18.1913 21.451 18.1743 20.4825 18.1743Z" fill="#1072D8"/>
</svg>
